<svg xmlns="http://www.w3.org/2000/svg" width="52.763" height="6.327" viewBox="0 0 52.763 6.327">
  <g id="Group_6" data-name="Group 6" transform="translate(-58.417 -382.339)">
    <path id="Path_5" data-name="Path 5" d="M62.716,383.722a2.519,2.519,0,1,1-1.78-.737A2.428,2.428,0,0,1,62.716,383.722Zm45.424.044v1.345h2.126v.783H108.14v1.344h3.04v.782h-3.823v-5.035h3.823v.781Zm-47.2,3.472a1.74,1.74,0,1,0-1.226-.509,1.663,1.663,0,0,0,1.226.509Z" fill="#1a1f4a" fill-rule="evenodd"/>
    <path id="Path_6" data-name="Path 6" d="M65.943,383.766v1.345h2.127v.783H65.943v2.127H65.16v-5.036h3.823v.782Z" fill="#1a1f4a" fill-rule="evenodd"/>
    <path id="Path_7" data-name="Path 7" d="M94.019,382.985v2.872a2.164,2.164,0,0,1-4.328,0v-2.872h.783v2.872a1.382,1.382,0,0,0,2.763,0v-2.872Zm2.775,3.112v1.923h-.782v-5.035h2.367a1.555,1.555,0,0,1,.324,3.076l-.175.038,1.44,1.921h-.98L97.547,386.1Zm6.388-.986h.963a1.454,1.454,0,0,1,0,2.909h-2.113v-.782h2.113a.68.68,0,0,0,.672-.672.649.649,0,0,0-.2-.477.642.642,0,0,0-.473-.195h-.963a1.455,1.455,0,0,1,0-2.909h2.163v.781h-2.163a.673.673,0,0,0,0,1.345Zm-6.388-1.345v1.546h1.585a.773.773,0,1,0,0-1.546Z" fill="#1a1f4a" fill-rule="evenodd"/>
    <path id="Path_8" data-name="Path 8" d="M78.182,387.238a1.68,1.68,0,0,0,1.063-.363l.083-.065.554.553-.1.084a2.515,2.515,0,1,1,0-3.894l.1.084-.553.557-.084-.065a1.736,1.736,0,1,0-1.063,3.109Z" fill="#1a1f4a" fill-rule="evenodd"/>
    <path id="Path_9" data-name="Path 9" d="M71.437,383.766v1.345h2.126v.783H71.437v2.127h-.783v-5.036h3.822v.782Z" fill="#1a1f4a" fill-rule="evenodd"/>
    <g id="_2871128139008" data-name=" 2871128139008">
      <g id="Group_5" data-name="Group 5">
        <path id="Path_10" data-name="Path 10" d="M85.52,386.378a1.026,1.026,0,0,1-.39.188.534.534,0,0,0-.328.254h0a1.269,1.269,0,0,1-.93-.386q-.042-.042-.078-.084a.751.751,0,0,1,.857-.1,1.391,1.391,0,0,0,.873.129Z" fill="#1a1f4a"/>
        <path id="Path_11" data-name="Path 11" d="M86.06,385.9a1.949,1.949,0,0,1-.393.05s.1.382-.488.277c-.492-.087-.909-.48-1.507-.032a1.233,1.233,0,0,1-.181-.512,1.537,1.537,0,0,1,.4-.272c.773-.38,1.385.307,2.213.3A1.213,1.213,0,0,1,86.06,385.9Z" fill="#1a1f4a"/>
        <path id="Path_12" data-name="Path 12" d="M86.116,385.469a3.752,3.752,0,0,1-.565-.065c-.762-.148-1.252-.609-1.957-.051-.041.032-.078.064-.113.1a1.318,1.318,0,0,1,2.635.02Z" fill="#1a1f4a"/>
      </g>
      <path id="Path_13" data-name="Path 13" d="M84.8,387.369a1.873,1.873,0,1,1,1.318-.548A1.8,1.8,0,0,1,84.8,387.369Zm2.388-1.507a.471.471,0,1,0,0-.719,2.428,2.428,0,0,0-2.028-2.028,1.139,1.139,0,0,0-.36-.776,1.138,1.138,0,0,0-.359.776,2.427,2.427,0,0,0-2.029,2.028.471.471,0,1,0,0,.719,2.427,2.427,0,0,0,2.029,2.028,1.138,1.138,0,0,0,.359.776,1.138,1.138,0,0,0,.359-.776,2.427,2.427,0,0,0,2.029-2.028Z" fill="#fab53b"/>
    </g>
  </g>
</svg>
