<svg xmlns="http://www.w3.org/2000/svg" width="22.935" height="22.642" viewBox="0 0 22.935 22.642">
  <g id="Group_34" data-name="Group 34" transform="translate(-55.181 -72.2)">
    <path id="Path_67" data-name="Path 67" d="M58.267,94.842a5.109,5.109,0,0,0-3.086-2.921,3.421,3.421,0,0,1,1.848.6l-.1-.967c.315-.059.339.143.391.307.131.41.236.83.4,1.228a5.385,5.385,0,0,0,.5.776c.11-.342.164-.531.231-.714.282-.765.557-1.534.862-2.291a3.243,3.243,0,0,1,.474-.608c.106.6-.286.835-.386,1.177-.115.392-.283.767-.41,1.155-.12.367-.223.74-.322,1.114s-.176.728-.263,1.092Z" fill="#29274c"/>
    <path id="Path_68" data-name="Path 68" d="M77.395,74.456c.207-.832.375-1.51.561-2.256A2.063,2.063,0,0,1,77.395,74.456Z" fill="#29274c"/>
    <path id="Path_69" data-name="Path 69" d="M64.84,81.545a4.613,4.613,0,0,1-1.918.865A2.674,2.674,0,0,1,64.84,81.545Z" fill="#29274c"/>
    <path id="Path_70" data-name="Path 70" d="M56.82,88.442a2.059,2.059,0,0,1,.547-1.648A2.208,2.208,0,0,1,56.82,88.442Z" fill="#29274c"/>
    <path id="Path_71" data-name="Path 71" d="M70.427,79.129a2.13,2.13,0,0,1-1.827.712A6.681,6.681,0,0,1,70.427,79.129Z" fill="#29274c"/>
    <path id="Path_72" data-name="Path 72" d="M60.3,83.889l-1.139,1.186A1.146,1.146,0,0,1,60.3,83.889Z" fill="#29274c"/>
    <path id="Path_73" data-name="Path 73" d="M74.144,77.5a2.618,2.618,0,0,1,1.265-.9C75.3,77.05,74.973,77.295,74.144,77.5Z" fill="#29274c"/>
  </g>
</svg>
