<svg xmlns="http://www.w3.org/2000/svg" width="84.802" height="5.039" viewBox="0 0 84.802 5.039">
  <g id="Group_51" data-name="Group 51" transform="translate(-41.319 -395.323)">
    <g id="Group_48" data-name="Group 48">
      <text id="ofcenglish" transform="translate(51.417 399.362)" fill="#222" font-size="3.112" font-family="SegoeUI, Segoe UI" letter-spacing="0.025em"><tspan x="-7.373" y="0">ofcenglish</tspan></text>
      <path id="Path_74" data-name="Path 74" d="M47.032,395.812h-.518c-.183,0-.221.075-.221.264v.457h.739l-.071.8h-.668v2.4h-.956v-2.386h-.5v-.813h.5v-.639c0-.6.321-.914,1.033-.914h.662Z" transform="translate(-3.52 0.343)" fill="#f9b53b"/>
    </g>
    <g id="Group_50" data-name="Group 50">
      <g id="Group_38" data-name="Group 38" transform="translate(-1.517 -0.05)">
        <text id="ofcenglish-2" data-name="ofcenglish" transform="translate(119.639 399.412)" fill="#222" font-size="3.112" font-family="SegoeUI, Segoe UI" letter-spacing="0.025em"><tspan x="-7.373" y="0">ofcenglish</tspan></text>
      </g>
      <g id="Group_40" data-name="Group 40" transform="translate(0 -0.287)">
        <g id="Group_39" data-name="Group 39">
          <circle id="Ellipse_7" data-name="Ellipse 7" cx="0.271" cy="0.271" r="0.271" transform="translate(108.895 396.633)" fill="#f9b53b"/>
          <path id="Path_75" data-name="Path 75" d="M107.962,396.95a1.158,1.158,0,1,0,1.158,1.157A1.158,1.158,0,0,0,107.962,396.95Zm0,1.909a.752.752,0,1,1,.752-.752A.752.752,0,0,1,107.962,398.859Z" fill="#f9b53b"/>
          <path id="Path_76" data-name="Path 76" d="M110.2,397.178a1.685,1.685,0,0,0-.1-.548,1.159,1.159,0,0,0-.66-.659,1.645,1.645,0,0,0-.547-.105c-.241-.011-.318-.013-.93-.013s-.689,0-.93.013a1.645,1.645,0,0,0-.547.105,1.112,1.112,0,0,0-.4.26,1.087,1.087,0,0,0-.26.4,1.656,1.656,0,0,0-.1.548c-.011.24-.014.317-.014.929s0,.69.014.93a1.656,1.656,0,0,0,.1.548,1.087,1.087,0,0,0,.26.4,1.112,1.112,0,0,0,.4.26,1.644,1.644,0,0,0,.547.105c.241.011.318.013.93.013s.689,0,.93-.013a1.644,1.644,0,0,0,.547-.105,1.159,1.159,0,0,0,.66-.659,1.685,1.685,0,0,0,.1-.548c.011-.24.014-.317.014-.93S110.214,397.418,110.2,397.178Zm-.405,1.841a1.258,1.258,0,0,1-.078.418.744.744,0,0,1-.428.428,1.245,1.245,0,0,1-.419.078c-.237.011-.309.013-.911.013s-.673,0-.911-.013a1.245,1.245,0,0,1-.419-.078.744.744,0,0,1-.428-.428,1.239,1.239,0,0,1-.077-.418c-.011-.238-.014-.309-.014-.912s0-.673.014-.911a1.239,1.239,0,0,1,.077-.418.744.744,0,0,1,.428-.428,1.246,1.246,0,0,1,.419-.078c.238-.011.309-.013.911-.013s.673,0,.911.013a1.246,1.246,0,0,1,.419.078.744.744,0,0,1,.428.428,1.258,1.258,0,0,1,.078.418c.01.238.013.309.013.911S109.808,398.781,109.8,399.019Z" fill="#f9b53b"/>
        </g>
      </g>
    </g>
    <g id="Group_49" data-name="Group 49">
      <text id="www.offcourse.app" transform="translate(83.094 399.362)" fill="#222" font-size="3.112" font-family="SegoeUI, Segoe UI" letter-spacing="0.025em"><tspan x="-13.705" y="0">www.offcourse.app</tspan></text>
      <g id="Group_46" data-name="Group 46" transform="translate(-3 -0.214)">
        <g id="Group_41" data-name="Group 41">
          <path id="Path_77" data-name="Path 77" d="M70.115,400.289a2.074,2.074,0,1,1,2.074-2.074A2.076,2.076,0,0,1,70.115,400.289Zm0-3.945a1.872,1.872,0,1,0,1.871,1.871A1.873,1.873,0,0,0,70.115,396.344Z" fill="none" stroke="#fab53b" stroke-miterlimit="10" stroke-width="0.2"/>
        </g>
        <g id="Group_42" data-name="Group 42">
          <path id="Path_78" data-name="Path 78" d="M70.1,397.774a4.8,4.8,0,0,1-1.8-.321l.082-.185a5.194,5.194,0,0,0,3.513,0l.067.191A5.664,5.664,0,0,1,70.1,397.774Z" fill="none" stroke="#fab53b" stroke-miterlimit="10" stroke-width="0.2"/>
        </g>
        <g id="Group_43" data-name="Group 43">
          <path id="Path_79" data-name="Path 79" d="M68.989,399.9l-.077-.187a3.025,3.025,0,0,1,2.421.008l-.109.171A2.878,2.878,0,0,0,68.989,399.9Z" fill="none" stroke="#fab53b" stroke-miterlimit="10" stroke-width="0.2"/>
        </g>
        <g id="Group_44" data-name="Group 44">
          <path id="Path_80" data-name="Path 80" d="M69.806,400.231a4.553,4.553,0,0,1-.288-3.979l.178.095a4.447,4.447,0,0,0,.292,3.8Z" fill="none" stroke="#fab53b" stroke-miterlimit="10" stroke-width="0.2"/>
        </g>
        <g id="Group_45" data-name="Group 45">
          <path id="Path_81" data-name="Path 81" d="M70.477,400.231l-.183-.087a4.447,4.447,0,0,0,.292-3.8l.179-.095A4.557,4.557,0,0,1,70.477,400.231Z" fill="none" stroke="#fab53b" stroke-miterlimit="10" stroke-width="0.2"/>
        </g>
      </g>
    </g>
  </g>
</svg>
