<svg xmlns="http://www.w3.org/2000/svg" width="15.242" height="19.311" viewBox="0 0 15.242 19.311">
  <g id="Group_33" data-name="Group 33" transform="translate(-144.071 -326.23)">
    <g id="Group_24" data-name="Group 24">
      <path id="Path_58" data-name="Path 58" d="M145.561,338.817a10.67,10.67,0,0,0,1.58.927c.514.206,1.077.332,1.576.564.468.218.894.509,1.366.711.321.137.589.264.675.637s-.072.723-.5.73a4.958,4.958,0,0,1-1.812-.539,13.045,13.045,0,0,1-1.472-.885c-.24-.145-.494-.27-.725-.43a3.38,3.38,0,0,1-.549-.585c-.135-.148-.382-.249-.48-.421a.8.8,0,0,1-.021-.583c.118-.235.26-.2.427-.084.148.1.274-.148.127-.246-.315-.212-.588-.3-.772.112a1.03,1.03,0,0,0,.073,1.039c.181.214.417.355.6.58a2.123,2.123,0,0,0,.513.465c.578.375,1.184.717,1.772,1.078a7.81,7.81,0,0,0,1.792.728,1.352,1.352,0,0,0,1.134-.111,1.1,1.1,0,0,0,.1-1.151c-.2-.432-.691-.515-1.071-.724-.328-.18-.642-.369-.979-.535a10.831,10.831,0,0,0-1.028-.367,12.033,12.033,0,0,1-2.194-1.156c-.152-.094-.278.153-.127.246Z" fill="#29274c"/>
    </g>
    <g id="Group_25" data-name="Group 25">
      <path id="Path_59" data-name="Path 59" d="M150.678,342.461a.606.606,0,0,1-.466.956,3.9,3.9,0,0,1-1.1-.247,7.252,7.252,0,0,1-1.987-.9,6.153,6.153,0,0,1-1.749-1.313,4.636,4.636,0,0,1-.4-.686c-.066-.123-.137-.058-.122-.26.009-.124.177-.287.269-.369l-.166.03.061.025c.165.066.293-.18.128-.247l-.062-.025a.148.148,0,0,0-.166.03c-.171.153-.416.468-.358.714.04.172.217.3.287.454a2.4,2.4,0,0,0,.3.485,3.35,3.35,0,0,0,.928.843,12.7,12.7,0,0,0,1.457.866,8.222,8.222,0,0,0,1.365.587,3.909,3.909,0,0,0,1.455.284.878.878,0,0,0,.565-1.373c-.09-.154-.322,0-.232.151Z" fill="#29274c"/>
    </g>
    <g id="Group_26" data-name="Group 26">
      <path id="Path_60" data-name="Path 60" d="M144.495,340.244a1.474,1.474,0,0,0-.411,1.065,2.758,2.758,0,0,0,.587,1.1,7.978,7.978,0,0,0,1.219.935,8.139,8.139,0,0,0,1.2.81,6.576,6.576,0,0,0,1.367.571,2.109,2.109,0,0,0,1.224.124c.5-.177,1.393-.8.8-1.327-.133-.118-.32.087-.186.206.349.31-.492.817-.766.88a2.327,2.327,0,0,1-1.019-.154,7.644,7.644,0,0,1-1.889-.912c-.269-.171-.493-.378-.749-.562a7.738,7.738,0,0,1-.823-.571,2.921,2.921,0,0,1-.551-.815c-.279-.529-.048-.792.239-1.226.1-.149-.149-.275-.246-.128Z" fill="#29274c"/>
    </g>
    <g id="Group_27" data-name="Group 27">
      <path id="Path_61" data-name="Path 61" d="M145,343.029c.051.083-.065.4-.067.514a1.434,1.434,0,0,0,.1.6,1.842,1.842,0,0,0,.81.729c.643.377,1.971.625,2.488-.074.105-.143-.1-.33-.206-.187-.284.385-.9.346-1.335.3a2.273,2.273,0,0,1-1.028-.413,1.023,1.023,0,0,1-.55-.973c.019-.276.176-.4.022-.648a.138.138,0,0,0-.232.151Z" fill="#29274c"/>
    </g>
    <g id="Group_28" data-name="Group 28">
      <path id="Path_62" data-name="Path 62" d="M145.715,344.129a1.818,1.818,0,0,0,.793.582.14.14,0,0,0,.18-.2c-.214-.347-1.043-.907-1.445-.635a.141.141,0,0,0-.018.219c.21.222.8,1.081,1.154.575.254-.362-.318-.974-.63-1.1a.143.143,0,0,0-.187.059c-.176.352.213,1.317.691,1,.526-.355-.353-1.245-.709-1.361-.094-.03-.163.065-.167.145-.017.378.258.941.671.993a.142.142,0,0,0,.152-.072c.194-.392-.367-.975-.7-1.1a.144.144,0,0,0-.187.059c-.08.138-.039.23.054.352a3.188,3.188,0,0,0,.439.552.141.141,0,0,0,.2-.01c.3-.369-.062-.946-.343-1.232a.139.139,0,0,0-.224.146,1.819,1.819,0,0,0,.327.492,2.741,2.741,0,0,0,.4.485.141.141,0,0,0,.229-.074c.1-.355-.547-.72-.813-.808a.138.138,0,0,0-.152.072c-.165.383.481.967.846.89a.138.138,0,0,0,.092-.1c.1-.37-.341-.721-.661-.811-.473-.132-.591.395-.386.731.162.266.7.864.984.4.247-.406-.346-1.081-.692-1.223-.708-.29-.1,1.69.417,1.016a.368.368,0,0,0,.019-.419,1.576,1.576,0,0,0-.45-.657c-.332-.185-.48.2-.385.466s.431.749.741.776c.426.037.262-.482.129-.683s-.528-.708-.778-.322c-.168.258.113.586.279.763a1.785,1.785,0,0,0,1.014.618c.355.023.427-.221.261-.494-.179-.3-.636-.781-1.028-.588-.327.16-.091.517.074.708.209.24.757.787,1.066.4.27-.333-.28-.753-.505-.928-.145-.114-.7-.448-.716-.023-.018.376.875.979,1.21.883a.141.141,0,0,0,.088-.175c-.137-.442-.683-.622-.943-.991l-.18.2c.514.344,1.005.719,1.527,1.05l.127-.246c-.264-.162-1.65-.85-1.755-.12-.07.482.883.5,1.175.533a.14.14,0,0,0,.093-.259c-.265-.158-.7-.353-.984-.149a.141.141,0,0,0,.012.24c.28.169,1.128.232,1.171-.238s-.7-.362-.915-.148a.14.14,0,0,0-.029.137c.134.477,1.077.306,1.385.131a.14.14,0,0,0,.041-.192c-.111-.156-.193-.168-.379-.149a2.172,2.172,0,0,0-.663.122.148.148,0,0,0-.094.14c-.035.48.695.306.976.246.447-.1.348-.577-.1-.533-.246.025-1.014.314-.665.673.256.263.931,0,1.092-.264a.14.14,0,0,0-.059-.187.308.308,0,0,0-.42.076.14.14,0,0,0,.039.216.489.489,0,0,0,.6-.126.139.139,0,0,0-.039-.216,1.616,1.616,0,0,0-1.14-.141.141.141,0,0,0,.012.24c.261.124.658.364.955.245a.141.141,0,0,0,.088-.175,1.312,1.312,0,0,0-1.135-.687.139.139,0,0,0-.094.14c.039.284.338.427.584.514.132.046.576.1.262.179a2.187,2.187,0,0,1-.518.008l.084.254c.085-.062.288-.159.394-.082l.049-.235a1.319,1.319,0,0,1-1.6-.513.705.705,0,0,1-.12-.547.347.347,0,0,0-.067-.269.143.143,0,0,0-.191-.041.665.665,0,0,0-.173.862.141.141,0,0,0,.234.05c.252-.238.084-.68-.076-.925a.141.141,0,0,0-.192-.04.673.673,0,0,0-.075.847.141.141,0,0,0,.219.017.6.6,0,0,0-.2-.888.141.141,0,0,0-.152.072.587.587,0,0,0-.016.513c.05.172.307.084.263-.088a3.519,3.519,0,0,1-.154-.812.139.139,0,0,0-.274-.02,1.787,1.787,0,0,0-.049.482.141.141,0,0,0,.241.085,1.654,1.654,0,0,0,.285-.492l-.187.06.211.327.2-.132a2.169,2.169,0,0,1-.4-.351l-.121.239c.492.071.744.484,1.063.816.121.127.329.364.525.234.446-.3-.567-.894-.749-1.01-.152-.1-.276.151-.128.247.321.207.628.434.959.625.162.093.537.353.732.19a.141.141,0,0,0,.04-.192,1.8,1.8,0,0,0-.9-.591.14.14,0,0,0-.16.18c.135.289.428.39.689.542s.5.408.826.412a.14.14,0,0,0,.108-.214l-.038-.047c-.112-.137-.345.013-.232.152l.037.046.108-.214c-.235,0-.427-.225-.613-.341s-.523-.211-.622-.424l-.16.18a1.532,1.532,0,0,1,.73.47l.041-.192c-.166.139-1.235-.714-1.412-.829l-.128.247c.194.123.352.3.545.421.359.215-.084-.184-.167-.277a1.73,1.73,0,0,0-1.032-.7.14.14,0,0,0-.122.239,2.486,2.486,0,0,0,.46.391c.1.062.2-.036.2-.131a.668.668,0,0,0-.36-.557.139.139,0,0,0-.186.06,1.433,1.433,0,0,1-.244.432l.241.085a1.5,1.5,0,0,1,.043-.407l-.274-.021a3.807,3.807,0,0,0,.168.883l.263-.088v-.3l-.152.072c.107.031.1.384.055.43l.219.017c-.065-.088-.115-.387-.006-.463l-.192-.04c.079.121.245.452.1.586l.234.05c-.062-.155-.138-.427.061-.542l-.192-.041c.106.13-.072.443,0,.622a2.03,2.03,0,0,0,.428.515,1.632,1.632,0,0,0,1.684.3.139.139,0,0,0,.049-.234.63.63,0,0,0-.732.056.14.14,0,0,0,.084.254c.368,0,.884.07,1.023-.361a.134.134,0,0,0-.042-.131c-.209-.173-1.005-.187-1.049-.5l-.094.14a1.226,1.226,0,0,1,.784.511l.087-.175c-.212.085-.549-.138-.739-.229l.012.24a1.836,1.836,0,0,1,.861.154l-.039-.216-.269.066.039.216.086-.015-.059-.187a.723.723,0,0,1-.5.2c-.29-.024.194-.159.3-.2.249-.092-.034-.024-.15-.006-.058.009-.436.113-.427-.012l-.1.14a2.619,2.619,0,0,1,.721-.084l.041-.192a1.375,1.375,0,0,1-.535.1c-.071.006-.454-.007-.295-.028.078-.01.13-.05.191.014.1.109-.141.091-.22.1a.807.807,0,0,1-.474-.085l.012.24c.187-.134.541.065.7.162l.093-.259c-.2-.02-.7,0-.836-.148-.167-.173.325-.13.425-.112a2.37,2.37,0,0,1,.806.365c.153.094.276-.152.127-.246-.521-.332-1.013-.707-1.526-1.05-.118-.079-.256.091-.18.2a2.238,2.238,0,0,0,.409.433c.176.144.43.261.5.494l.088-.175c-.146.042-.818-.47-.858-.553.05.1.364.239.471.339.091.086.419.387.064.334-.122-.018-.319-.246-.4-.335.006.007-.2-.212-.181-.237.106-.19.357.062.437.137.171.163.423.432.038.288a1.814,1.814,0,0,1-.84-.708c-.191-.343.165-.006.246.128.056.092.241.311.013.177a.78.78,0,0,1-.14-.136c-.1-.107-.381-.618-.126-.317a1.223,1.223,0,0,1,.161.275c.036.1.064.17-.022.07a.785.785,0,0,1-.138-.283c-.01-.173,0-.072.113-.008.168.1.355.323.237.481-.045.134-.1.137-.159.01a1.8,1.8,0,0,1-.237-.249l.106-.3a1.474,1.474,0,0,1,.151.082c.011.006.339.25.316.277s-.484-.408-.449-.488l-.152.072c.114.038.64.333.6.48l.229-.074a2.856,2.856,0,0,1-.647-.859l-.225.146c.132.135.482.648.324.841l.2-.01c.011.009-.43-.575-.433-.57l-.187.059c.174.064.695.5.585.725l.152-.072c-.289-.037-.462-.514-.452-.739l-.167.144c.17.055.587.428.591.64,0,.153-.052.181-.178.058a.461.461,0,0,1-.091-.477l-.187.059a.786.786,0,0,1,.255.193,1.423,1.423,0,0,1,.159.2c.078.118.181.177-.007.221-.246.058-.458-.364-.617-.534l-.018.219c.232-.156.955.382,1.062.555l.179-.2a1.6,1.6,0,0,1-.688-.487c-.091-.154-.323,0-.232.151Z" fill="#29274c"/>
    </g>
    <g id="Group_29" data-name="Group 29">
      <path id="Path_63" data-name="Path 63" d="M145.491,343.341a2.08,2.08,0,0,1,.877.463c.209.128.5.2.647.409l.144-.211a2.327,2.327,0,0,1-1.043-.623l-.2.167a3.324,3.324,0,0,1,.616.455,3.006,3.006,0,0,1,.478.318l.085-.241c-.435-.021-.97-.769-1.156-1.112l-.145.212a2.541,2.541,0,0,1,.714.43,2.216,2.216,0,0,1,.677.516l.232-.151a2.338,2.338,0,0,0-.829-.635l-.128.246a9.973,9.973,0,0,1,1.892,1l-.009-.2c-.049.06-.249.069-.331.113-.157.086-.005.318.151.233s.26-.005.385-.16a.142.142,0,0,0-.009-.2,10.229,10.229,0,0,0-1.951-1.045c-.154-.092-.28.155-.128.246a2.052,2.052,0,0,1,.725.54c.1.147.332,0,.232-.151a2.4,2.4,0,0,0-.757-.6,2.841,2.841,0,0,0-.808-.471c-.126-.035-.2.115-.145.212.259.478.808,1.208,1.4,1.237.128.006.161-.165.085-.242a5.1,5.1,0,0,0-.586-.4,2.345,2.345,0,0,0-.566-.417c-.105-.042-.241.044-.2.166.077.209.265.29.448.4a2.248,2.248,0,0,0,.8.41.14.14,0,0,0,.145-.211,1.921,1.921,0,0,0-.688-.468c-.335-.193-.607-.489-1.011-.524-.175-.016-.235.256-.057.271Z" fill="#29274c"/>
    </g>
    <g id="Group_30" data-name="Group 30">
      <path id="Path_64" data-name="Path 64" d="M144.939,342.708c-.051.439-.31.925-.039,1.342a3.947,3.947,0,0,0,1.366,1.036,2.114,2.114,0,0,0,1.3.445,1.693,1.693,0,0,0,1-.8c.1-.144-.1-.332-.205-.187a1.941,1.941,0,0,1-.507.424c-.079.049-.615.31-.67.093l-.123.182c.226.013.443.082.6-.114.112-.139-.093-.325-.206-.187-.071.088-.309.03-.414.024s-.143.105-.123.182c.055.22.439.3.631.275a1.914,1.914,0,0,0,1.014-.692l-.205-.187c-.254.355-.555.751-1.043.7a2.544,2.544,0,0,1-.927-.4,4.009,4.009,0,0,1-1.111-.79c-.367-.438-.129-.8-.072-1.285.02-.176-.251-.235-.272-.057Z" fill="#29274c"/>
    </g>
    <g id="Group_31" data-name="Group 31">
      <path id="Path_65" data-name="Path 65" d="M146.172,338.691a1.886,1.886,0,0,0,.335-.782c.071-.491-.363-.836-.57-1.246a6.3,6.3,0,0,1-.315-3.249,7.737,7.737,0,0,1,4.024-6.362,6.576,6.576,0,0,1,8.123,2.062,7.142,7.142,0,0,1,1.265,3.928,6.153,6.153,0,0,1-1.591,4.064,11.681,11.681,0,0,1-4.043,2.91,3.285,3.285,0,0,1-.9.313c-.314.038-.63-.021-.943.017-.486.06-.74.486-1.019.848-.078.1.189.127.243.057a4.022,4.022,0,0,1,.515-.623c.3-.252.8-.118,1.177-.156a4.461,4.461,0,0,0,1.4-.49,12.064,12.064,0,0,0,3.607-2.6,6.471,6.471,0,0,0,1.808-3.843,6.823,6.823,0,0,0-8.228-7.172,7.4,7.4,0,0,0-5.348,5.129,10.269,10.269,0,0,0-.3,4.406,3.365,3.365,0,0,0,.659,1.443,1.124,1.124,0,0,1-.168,1.32c-.052.075.215.1.269.023Z" fill="#29274c"/>
    </g>
    <g id="Group_32" data-name="Group 32">
      <path id="Path_66" data-name="Path 66" d="M147.79,339.733c.365-.651.518-1.427.819-2.113.1-.217.305-.551.235-.8-.028-.1-.135-.189-.177-.288a1.538,1.538,0,0,1-.088-.6,3.2,3.2,0,0,1,.579-2.279c.7-.7.88.052.884.533,0,.147-.1,1.048-.357,1.063l.137.044c-.18-.286.321-1.05.509-1.255.3-.324.979-.747,1.193-.078a2.621,2.621,0,0,1,.13,1.013c-.018.216-.069.76-.257.914-.013.086-.036.1-.068.041a.6.6,0,0,1,.05-.278,1.34,1.34,0,0,1,.143-.3c.229-.354,1.006-.6,1.254-.108.151.3-.145.783-.3,1.027-.054.082-.134.245-.221.288-.208.105-.083-.135-.019-.263.179-.36.668-.944,1.151-.8s.073.715-.076.953a2.4,2.4,0,0,1-.825.852c-.363.2-.689.036-1.055.107a.4.4,0,0,0-.27.132c-.144.155-.251.405-.384.574-.072.091-.143.18-.211.274-.461.63-.824,1.321-1.219,1.992-.048.083.221.1.269.023.313-.533.61-1.069.945-1.588.173-.269.375-.51.564-.767.048-.064.092-.127.135-.194.138-.218.187-.266.443-.29a1.99,1.99,0,0,0,.984-.176,2.645,2.645,0,0,0,.929-.976c.129-.216.428-.633.234-.895-.144-.194-.494-.175-.7-.15a1.452,1.452,0,0,0-.933.517c-.137.161-.551.691-.3.9.513.436,2.154-2.1.266-1.961a1.3,1.3,0,0,0-.76.293c-.179.164-.477.658-.336.917.341.63.759-.571.8-.735.137-.6.111-2.035-.813-1.9a1.815,1.815,0,0,0-.974.577c-.238.256-.75,1.015-.533,1.363.026.04.1.046.137.044.67-.039.7-1.3.554-1.762-.246-.771-1.177-.283-1.478.167a2.893,2.893,0,0,0-.446,1.435,3.315,3.315,0,0,0,.059,1.3c.035.1.116.177.147.267a.67.67,0,0,1-.061.513c-.1.276-.242.539-.352.813a13.485,13.485,0,0,1-.6,1.594c-.048.085.222.105.269.022Z" fill="#29274c"/>
    </g>
  </g>
</svg>
