<svg xmlns="http://www.w3.org/2000/svg" xmlns:xlink="http://www.w3.org/1999/xlink" width="16.715" height="39.381" viewBox="0 0 16.715 39.381">
  <defs>
    <clipPath id="clip-path">
      <rect id="Rectangle_14" data-name="Rectangle 14" width="16.715" height="39.381" transform="translate(152.882 119.257)" fill="none"/>
    </clipPath>
  </defs>
  <g id="Group_23" data-name="Group 23" transform="translate(-152.882 -119.257)">
    <g id="Group_22" data-name="Group 22" clip-path="url(#clip-path)">
      <g id="Group_21" data-name="Group 21">
        <path id="Path_57" data-name="Path 57" d="M170.314,136.9a10.919,10.919,0,0,0-1.347,5.382.208.208,0,0,0,.206.206c5.821.177,9.259-7.352,3.814-10.659-4.136-2.512-10.4,1.849-10.733,6.311a4.957,4.957,0,0,0,2.966,4.976c2.163.885,4.812-.234,6.693-1.289,3.554-1.994,8.24-6.743,4.817-10.836-3.075-3.677-9.939-2.6-13.668-.772a10.692,10.692,0,0,0-4.4,4.727,6.7,6.7,0,0,0-1.178,3.788c.226,2.143,2.976,1.9,4.485,1.608a22.416,22.416,0,0,0,8.39-3.847c1.548-1.1,4.009-3,3.692-5.189-.412-2.854-5.934-3.092-7.794-2.431-5.018,1.783-6.057,9.993-.469,11.688,4.826,1.463,11.041-3.85,11.5-8.531.2-2.091-.436-6.6-3.5-5.875-2.685.641-4.632,3.993-5.616,6.309-1.03,2.424-1.644,5.877.705,7.754,3.027,2.419,8.155,1.1,10.359-1.723,2.447-3.137,3.426-8.683,1.154-12.159a4.282,4.282,0,0,0-4.386-1.79,6.242,6.242,0,0,0-4.473,3.753,18.381,18.381,0,0,0,.068,14.875c1.383,2.942,5.246,4.951,8.37,3.546,2.705-1.217,3.769-4.66,4.059-7.357.264-2.455-.008-6.06-2.223-7.647-2.905-2.08-6.391,1.226-8.247,3.221a26.207,26.207,0,0,0-4.384,5.912,3.24,3.24,0,0,0-.388,2.787c.877,1.715,4.072.249,5.19-.312,2.051-1.03,4.535-2.864,4.96-5.282.573-3.256-3.825-4.566-6.152-5.151-2.826-.71-7.328-1.136-8.724,2.185-1.746,4.155,2.729,12.985,7.989,10.938,3.232-1.258,4.886-6.6,4.737-9.707-.137-2.862-2.912-2.556-4.8-1.536-1.572.847-3.56,2.465-3.752,4.378-.258,2.569,4.167,2.159,5.559,2.018.262-.027.265-.439,0-.413-1.3.131-4.522.591-5.1-1.123-.4-1.177.961-2.531,1.719-3.23,1.958-1.8,6.205-3.515,5.96.738-.183,3.188-2.372,9.7-6.675,8.6-2.971-.755-4.938-4.308-5.5-7.086a5.227,5.227,0,0,1,.774-4.3c1.167-1.468,3.26-1.634,4.987-1.524,2.651.166,9.675,1.519,8.463,5.6-.753,2.541-3.843,4.379-6.188,5.178-.818.279-2.172.672-2.919.025-.949-.823.3-2.8.741-3.537a28.25,28.25,0,0,1,5.427-6.484c1.317-1.175,3.171-2.464,5.037-2.064,3.092.662,3.326,5.377,3.1,7.805-.287,3.079-1.851,7.1-5.412,7.4-5.775.478-7.545-6.1-7.7-10.579a16.094,16.094,0,0,1,1.792-8.452c1.276-2.233,4.079-3.684,6.518-2.341,2.135,1.175,2.458,4.221,2.352,6.376a11.469,11.469,0,0,1-2.951,7.279c-2.6,2.716-9.568,2.984-10.467-1.527-.647-3.252,1.5-7.059,3.671-9.314.834-.868,2.123-1.952,3.426-1.683,1.672.344,1.9,2.984,1.994,4.287.266,3.5-2.205,6.309-5.013,8.079-3.178,2-7.762,2.191-9.228-1.959-1.312-3.711,2.042-8.075,5.861-8,1.519.029,3.707.476,4.787,1.651,1.826,1.987-2.088,4.857-3.407,5.777a21.126,21.126,0,0,1-8.6,3.7c-.971.15-2.3.226-3.023-.569-.883-.966.008-2.78.469-3.709a10.952,10.952,0,0,1,4.858-5.334,14.9,14.9,0,0,1,8.887-1.184c2.724.476,5.615,2.5,5.062,5.619-.507,2.864-3.452,5.211-5.789,6.6-2.721,1.612-6.3,2.458-8.37-.5-2.226-3.165.95-7.022,3.65-8.534,3.48-1.949,8.652-.254,8.45,4.314a6.086,6.086,0,0,1-3.408,4.728,5.826,5.826,0,0,1-1.377.484c-.906.228-1.285.239-1.235-.735a9.308,9.308,0,0,1,1.257-4.125.207.207,0,0,0-.357-.208Z" fill="#29274c"/>
      </g>
    </g>
  </g>
</svg>
