<svg xmlns="http://www.w3.org/2000/svg" width="44.498" height="38.893" viewBox="0 0 44.498 38.893">
  <g id="Group_15" data-name="Group 15" transform="translate(12.476 6.175)">
    <path id="Path_30" data-name="Path 30" d="M20.977.862c-.183-.07-.367-.146-.557-.2l-.65-.2c-.07-.021-.144-.035-.216-.051l-.395-.1A11.665,11.665,0,0,0,17.93.1c-.19-.026-.374-.044-.564-.058a8.515,8.515,0,0,0-1-.033c-.374.019-.74.053-1.11.1-.176.026-.353.046-.527.081-.211.042-.422.074-.631.123s-.425.1-.638.156C13.074.562,12.7.683,12.324.8c-.2.065-.4.128-.594.2s-.39.135-.578.214l-.638.265c-.181.074-.355.162-.532.244-.151.07-.3.144-.448.218s-.325.16-.483.246A23.9,23.9,0,0,0,6.894,3.461c-.165.116-.339.225-.5.348l-.552.425c-.151.116-.29.251-.434.378-.125.109-.248.221-.367.337-.172.165-.344.325-.5.5l-.467.52c-.046.051-.084.109-.125.162l-.244.318c-.1.135-.2.269-.292.409s-.2.292-.3.446c-.111.176-.232.351-.337.534s-.23.392-.346.59c-.091.156-.174.316-.258.474-.107.2-.209.395-.306.594-.084.174-.172.344-.248.52q-.265.6-.518,1.207c-.144.346-.279.7-.413,1.047-.07.181-.137.364-.2.545l-.06.169c-.019.051-.035.1-.053.156A7.289,7.289,0,0,0,.156,14c-.051.279-.081.557-.114.836a6.472,6.472,0,0,0,0,1.453A8.827,8.827,0,0,0,.416,17.93c.128.422.272.84.416,1.256.058.167.116.334.183.5s.13.346.211.511.165.355.26.525.207.364.316.543c.137.223.279.439.425.655.046.07.1.135.146.2.06.081.118.165.183.244.116.139.225.283.348.416.137.149.272.3.415.436a12.469,12.469,0,0,0,1,.889c.313.246.627.49.959.71s.65.425.984.624c.369.221.738.436,1.112.65.334.19.675.369,1.017.55.738.4,1.488.773,2.259,1.1.181.079.367.151.55.223s.357.125.536.186c.091.03.183.053.274.079s.16.051.241.07c.237.056.476.118.715.162.395.072.789.142,1.188.186.2.023.409.042.615.056.146.009.295.019.443.023.125,0,.251,0,.376,0,.162-.007.33-.009.492-.03a10.682,10.682,0,0,0,1.119-.176c.2-.046.406-.1.608-.151s.409-.121.61-.186c.239-.077.474-.165.708-.253.084-.032.165-.072.248-.109s.162-.065.239-.1c.167-.086.337-.165.5-.258.193-.107.381-.216.569-.332a14.177,14.177,0,0,0,1.994-1.513,8.785,8.785,0,0,0,.889-.945c.251-.3.478-.622.708-.938s.434-.627.638-.949c.1-.158.186-.327.272-.492.118-.23.232-.462.344-.7.16-.346.3-.7.448-1.054.137-.318.286-.629.441-.94.146-.272.3-.543.45-.815.165-.3.323-.6.48-.9.167-.33.339-.662.483-1,.121-.286.237-.571.367-.85a1.662,1.662,0,0,1,.132-.209c.035-.032.072-.065.111-.1a2.606,2.606,0,0,1,.32-.137,7.345,7.345,0,0,1,.838-.172c.174-.03.348-.053.525-.074s.351-.044.527-.058l.557-.042c.255-.012.508-.026.764-.035.432-.012.863-.026,1.3-.035.388-.009.778-.007,1.165-.007s.773.019,1.158.039c.058,0,.116.007.174.012l.077.079a.6.6,0,0,0,.4.2.584.584,0,0,0,.416-.135.839.839,0,0,0,.077-.081.834.834,0,0,0,.318-.07.728.728,0,0,0,.29-.26.654.654,0,0,0,.053-.648.634.634,0,0,0-.216-.253l-.153-.079a.433.433,0,0,0-.118-.035c-.032-.007-.065-.012-.1-.016a1.251,1.251,0,0,0-.225-.046l-.172-.019q-.1-.014-.2-.021l-.251-.019c-.079-.07-.158-.137-.239-.2-.316-.265-.666-.492-1-.727-.318-.221-.629-.45-.94-.678-.142-.1-.286-.209-.429-.311s-.3-.223-.462-.323c-.176-.109-.348-.221-.529-.318-.209-.114-.418-.223-.629-.327-.167-.079-.33-.16-.5-.23-.26-.109-.52-.218-.782-.323a.469.469,0,0,0-.292-.019c-.063-.183-.128-.367-.195-.548-.111-.3-.227-.594-.344-.891a15.682,15.682,0,0,0-.754-1.732c-.091-.167-.176-.334-.279-.494l-.227-.355c-.051-.079-.1-.16-.151-.232l-.383-.532c-.051-.072-.111-.139-.169-.207l-.218-.272c-.042-.053-.091-.1-.137-.149l-.272-.292c-.121-.128-.248-.246-.376-.364-.156-.146-.306-.292-.469-.429s-.295-.258-.45-.374-.334-.262-.508-.381l-.543-.371c-.169-.116-.348-.221-.522-.33s-.33-.195-.492-.292-.3-.165-.457-.244c-.188-.1-.376-.2-.571-.292l-.675-.313c-.167-.077-.339-.139-.508-.211S21.138.92,20.977.862ZM20.838,2c.227.088.457.179.685.269.174.067.344.149.515.225.309.137.613.288.917.436s.58.325.866.494c.132.079.262.158.392.241s.295.181.434.281l.508.357c.135.1.258.2.385.3.227.183.443.378.662.573l.49.5c.072.072.135.156.2.234s.151.167.218.255l.225.292c.06.077.125.153.181.237l.346.513.279.481c.084.144.151.3.227.448.149.292.274.6.4.9.139.327.276.655.4.987.149.388.286.78.415,1.175a.4.4,0,0,0,.23.207.4.4,0,0,0,.3-.012c.3.118.592.244.889.367.174.074.344.165.513.248.144.079.292.156.432.244.172.109.344.218.511.337.33.234.652.476.975.717.2.153.406.3.608.45-.239,0-.478,0-.717.009-.829.021-1.662.037-2.488.1-.2.014-.4.023-.592.046l-.68.079c-.2.021-.392.063-.585.093a4.122,4.122,0,0,0-.5.114,3.128,3.128,0,0,0-.773.309,1.941,1.941,0,0,0-.3.216c-.074.072-.142.146-.211.223a1.505,1.505,0,0,0-.179.253c-.074.135-.144.272-.211.411-.084.169-.156.344-.227.518-.144.346-.3.682-.471,1.019s-.341.652-.522.973c-.232.411-.45.824-.662,1.244-.16.323-.3.659-.443.991-.153.369-.311.731-.481,1.091-.1.19-.2.378-.311.557-.156.248-.318.492-.487.734q-.474.679-1,1.314l-.158.172c-.084.091-.179.172-.269.258-.188.176-.388.341-.587.506-.362.3-.74.573-1.13.838-.139.086-.279.169-.422.251-.186.1-.371.2-.562.295a10.174,10.174,0,0,1-1.01.422c-.142.044-.286.091-.429.13-.225.063-.45.118-.678.172-.2.046-.4.079-.6.114-.107.019-.218.028-.327.042s-.216.026-.325.035a10.153,10.153,0,0,1-1.548-.084c-.339-.039-.673-.1-1.01-.16l-.406-.1c-.162-.037-.32-.093-.481-.139-.306-.088-.606-.207-.9-.325-.559-.221-1.1-.487-1.641-.757q-.634-.334-1.263-.678c-.32-.174-.638-.353-.952-.541-.165-.1-.33-.195-.492-.295-.188-.116-.381-.227-.566-.351-.316-.209-.636-.418-.935-.652l-.286-.221c-.07-.056-.144-.107-.209-.165L4.638,22.5a10.286,10.286,0,0,1-.792-.829c-.144-.174-.281-.351-.418-.532-.093-.123-.179-.253-.265-.381-.151-.246-.295-.494-.436-.747-.07-.123-.128-.255-.188-.383s-.1-.232-.153-.351c-.2-.487-.367-.984-.534-1.483-.065-.211-.132-.422-.19-.638-.039-.146-.086-.292-.118-.441a6.353,6.353,0,0,1-.132-.884A6.982,6.982,0,0,1,1.458,14.8c.028-.26.058-.518.107-.775a11.145,11.145,0,0,1,.418-1.291c.118-.323.237-.648.364-.968.144-.355.288-.71.436-1.063.132-.313.276-.622.42-.931.151-.29.3-.576.462-.859.081-.142.16-.286.246-.425.107-.172.207-.348.318-.515.121-.183.244-.364.364-.545.091-.137.19-.265.29-.395s.193-.265.3-.388l.346-.395.26-.253c.079-.081.158-.165.241-.241l.325-.29c.091-.081.179-.169.274-.244l.332-.262c.086-.067.167-.139.255-.2l.627-.443.409-.26c.309-.2.629-.374.949-.552.369-.2.74-.4,1.117-.59.327-.169.666-.318,1.005-.46.162-.07.323-.139.485-.2l.613-.23c.248-.081.5-.165.75-.237.341-.1.682-.186,1.026-.272.121-.03.241-.056.364-.079.158-.032.32-.077.481-.1.413-.06.822-.125,1.235-.158a8.957,8.957,0,0,1,.9.016c.169.009.337.019.5.039s.36.032.536.063l.55.1.545.123c.179.039.355.1.534.149s.332.1.5.16S20.676,1.932,20.838,2Z" transform="matrix(-0.951, -0.309, 0.309, -0.951, 23.146, 32.718)" fill="#29274c"/>
    <path id="Path_31" data-name="Path 31" d="M22.5,30.727a.406.406,0,0,0-.2-.227.364.364,0,0,0-.1-.035.4.4,0,0,0-.455.52q.529,1.316,1.052,2.63c.181.453.36.905.541,1.358.135.337.279.671.42,1.007.056.13.107.262.167.392l.107.232-.162.1a.445.445,0,0,0,.494.74l.049-.033c.1.216.211.429.318.645.179.362.371.717.566,1.072.084.153.174.3.262.455.051.084.1.165.156.246a2.26,2.26,0,0,0,.281.332.419.419,0,0,0,.5.035.41.41,0,0,0,.174-.262.433.433,0,0,0-.06-.311c-.077-.13-.153-.262-.232-.392-.053-.091-.111-.179-.167-.267-.142-.232-.281-.467-.418-.7-.058-.1-.111-.2-.167-.3s-.107-.19-.156-.286l-.36-.7.265-.151.824-.474c.492-.244.982-.49,1.481-.72.279-.125.555-.248.836-.369l.211-.091c.065.237.132.471.2.706l.2.655c.063.207.146.406.218.608.118.334.269.662.411.987.06.142.123.283.186.422.035.086.072.169.111.253l.063.137a1.271,1.271,0,0,0,.144.244l.1.111q.084.059.167.111a.557.557,0,0,0,.292.058.536.536,0,0,0,.269-.093.565.565,0,0,0,.218-.645,4.485,4.485,0,0,0-.274-.6c-.091-.186-.181-.369-.269-.555s-.174-.376-.258-.566c-.077-.174-.144-.351-.214-.529-.253-.664-.453-1.344-.65-2.024a.349.349,0,0,0,0-.07.413.413,0,0,0-.088-.23l-.007-.028c-.067-.232-.125-.464-.186-.7-.084-.323-.162-.648-.232-.975a18.4,18.4,0,0,1-.253-1.848c-.03-.32-.056-.643-.079-.963-.028-.344-.03-.689-.044-1.035a.531.531,0,0,0-.434-.485.529.529,0,0,0-.631.562c.009.276.016.552.03.829.014.3.042.6.067.894.049.573.109,1.147.2,1.713a20.547,20.547,0,0,0,.483,2.143l-.137.063c-.188.084-.374.172-.559.258-.334.156-.666.318-1,.483l-.734.371c-.118.058-.244.114-.36.181l-.961.557c-.021-.046-.044-.093-.065-.139l-.292-.682c-.063-.144-.13-.29-.188-.439q-.435-1.072-.864-2.145Q22.914,31.75,22.5,30.727Z" transform="translate(-16.762 -19.168)" fill="#29274c"/>
    <path id="Path_32" data-name="Path 32" d="M26.483,30.436a.551.551,0,0,0-.132.265,2.947,2.947,0,0,0-.093,1.056,8.864,8.864,0,0,0,.144,1.079c.079.432.181.859.279,1.288.051.225.118.446.183.666.037.118.077.237.118.353a1.034,1.034,0,0,0,.058.125,1.46,1.46,0,0,0,.167.286.821.821,0,0,0,.279.241.577.577,0,0,0,.483.03l.121-.058a.525.525,0,0,0,.151-.722c-.079-.174-.144-.355-.207-.536s-.123-.36-.181-.541c-.128-.411-.23-.831-.318-1.253-.046-.232-.081-.467-.111-.7a4.867,4.867,0,0,1-.044-.689,2.161,2.161,0,0,1,.081-.4.542.542,0,0,0-.084-.425.58.58,0,0,0-.36-.241.569.569,0,0,0-.425.086Z" transform="translate(-10.786 -16.36)" fill="#29274c"/>
    <path id="Path_33" data-name="Path 33" d="M26.54,30.438a1.92,1.92,0,0,0,.624-.128,1.16,1.16,0,0,0,.376-.246.617.617,0,0,0,.125-.169.65.65,0,0,0,.077-.348l0-.028a.531.531,0,0,0-.091-.265.781.781,0,0,0-.118-.144.662.662,0,0,0-.292-.149l-.021,0a.609.609,0,0,0-.341.019,1.112,1.112,0,0,0-.181.093.792.792,0,0,0-.218.26l0,0-.014,0a.554.554,0,1,0,.081,1.1Z" transform="translate(-11.186 -18.082)" fill="#29274c"/>
    <path id="Path_34" data-name="Path 34" d="M28.25,28.748c-.007.422.023.845.056,1.267.026.325.063.65.1.975.016.149.044.3.065.446.016.123.039.244.063.367.063.316.13.629.2.942l.084.327a1.348,1.348,0,0,0,.181.4.388.388,0,0,0,.669-.042.374.374,0,0,0,.019-.3,7.708,7.708,0,0,1-.295-.8c-.042-.135-.086-.269-.118-.406l-.109-.434-.1-.534c-.009-.053-.014-.107-.019-.16l-.053-.422c-.039-.3-.067-.606-.091-.912a13.272,13.272,0,0,1,0-1.664l.016-.227,0-.084a.316.316,0,0,0-.051-.149.3.3,0,0,0-.195-.13.312.312,0,0,0-.232.044.3.3,0,0,0-.13.2C28.282,27.885,28.254,28.314,28.25,28.748Z" transform="translate(-8.142 -20.376)" fill="#29274c"/>
    <path id="Path_35" data-name="Path 35" d="M28.981,31.526a1.407,1.407,0,0,0,.007.557.167.167,0,0,0,.023.056.565.565,0,0,0,.162.246.637.637,0,0,0,.318.165.738.738,0,0,0,.362-.028.674.674,0,0,0,.286-.19.786.786,0,0,0,.123-.19.829.829,0,0,0,.067-.374.609.609,0,0,0-.16-.369v0a.6.6,0,0,0-.086-.436.59.59,0,0,0-.371-.248.584.584,0,0,0-.685.457C29.011,31.287,29,31.405,28.981,31.526Z" transform="translate(-7.207 -15.758)" fill="#29274c"/>
  </g>
</svg>
