<svg xmlns="http://www.w3.org/2000/svg" width="90.033" height="79.044" viewBox="0 0 90.033 79.044">
  <g id="Group_53" data-name="Group 53" transform="matrix(0.914, -0.407, 0.407, 0.914, -9.04, 37.132)">
    <path id="Path_22" data-name="Path 22" d="M69.38,33.4c.2-.269.39-.549.584-.822.176-.249.363-.49.525-.746.187-.294.377-.584.56-.877.342-.553.691-1.1,1.019-1.665.363-.615.736-1.226,1.088-1.851q.844-1.508,1.682-3.019a.95.95,0,0,0,.29-.463.971.971,0,0,0,.024-.332.575.575,0,0,0-.034-.187.826.826,0,0,0-.086-.2.979.979,0,0,0-.594-.459.944.944,0,0,0-.722.1,5.257,5.257,0,0,1-.68.38c-.307.114-.622.207-.94.29-.38.1-.763.211-1.147.307a22.177,22.177,0,0,1-2.235.428,16.941,16.941,0,0,1-2.256.083c-.743-.024-1.482-.09-2.221-.173-.556-.083-1.112-.166-1.668-.259-.632-.111-1.268-.218-1.893-.38-.6-.159-1.205-.321-1.8-.528-.318-.111-.649-.207-.964-.335l-.718-.29c-.4-.193-.8-.387-1.192-.6-.183-.1-.366-.193-.542-.3l-.77-.473c-.729-.446-1.416-.953-2.1-1.458-.48-.377-.957-.75-1.427-1.136q-.891-.731-1.765-1.475c-.5-.425-1-.857-1.492-1.3s-1.009-.919-1.52-1.368l-.895-.788c-.245-.218-.5-.418-.76-.629-.539-.442-1.1-.867-1.658-1.278Q41.28,10.281,39.471,9c-1.147-.8-2.332-1.537-3.516-2.28-.238-.149-.487-.294-.729-.439-.3-.18-.6-.363-.9-.535-.56-.325-1.119-.653-1.682-.971-.622-.352-1.24-.712-1.869-1.05L29.63,3.114c-.311-.166-.635-.311-.953-.466-.269-.131-.539-.245-.812-.363-.37-.159-.743-.335-1.123-.47L25.516,1.38c-.307-.107-.625-.183-.936-.273-.29-.079-.573-.152-.867-.221-.325-.079-.649-.166-.978-.235L21.468.4c-.314-.066-.639-.1-.957-.152A19.777,19.777,0,0,0,18.445.012,15.1,15.1,0,0,0,15.44.222,12.351,12.351,0,0,0,14.124.5a11.249,11.249,0,0,0-1.551.532A9.847,9.847,0,0,0,10.221,2.45c-.269.214-.556.418-.819.646l-.908.794c-.076.066-.145.142-.214.211l-.539.525c-.231.231-.449.477-.67.718-.428.47-.85.946-1.25,1.44-.276.342-.56.677-.819,1.029-.235.318-.466.636-.7.953-.214.29-.4.6-.6.9-.186.283-.356.584-.532.874-.155.263-.3.528-.442.8s-.314.563-.449.857l-.5,1.116c-.086.187-.152.383-.225.577l-.249.677c-.121.321-.218.656-.325.984-.1.3-.183.615-.269.926A20.183,20.183,0,0,0,.145,19.12a17.489,17.489,0,0,0-.128,3.095A22.33,22.33,0,0,0,.2,24.463c.052.37.1.739.169,1.105s.155.746.242,1.119c.155.667.376,1.313.6,1.962.048.131.1.259.159.39.09.228.173.466.276.687.138.294.259.6.411.881.166.3.314.611.5.9.2.314.394.622.6.926.449.649.929,1.275,1.423,1.893.083.1.176.207.266.311.111.128.218.263.335.39.221.242.442.487.67.725.432.449.86.9,1.3,1.34l.128.128a34.133,34.133,0,0,0,3.071,2.8c.622.48,1.243.967,1.886,1.42.287.2.577.4.864.6s.546.38.829.556c.57.356,1.143.715,1.748,1.016q1.021.5,2.052.991c1.264.594,2.549,1.154,3.831,1.71.328.142.663.273,1,.4.29.117.577.238.87.345.653.242,1.309.484,1.969.708q2.083.72,4.183,1.392c.563.176,1.133.342,1.7.484l1.316.332c.287.073.577.131.864.193s.6.135.9.19l1.313.242c.677.124,1.361.221,2.041.325.328.052.656.083.988.121.394.048.788.093,1.181.142.09.01.183.01.273.017l.756.045c.28.014.556.035.832.031.408,0,.815,0,1.223-.007.349,0,.7-.035,1.05-.052.276-.014.553-.021.826-.045.442-.041.884-.086,1.33-.128.3-.028.6-.055.909-.1l1.309-.2c.314-.048.625-.124.936-.19q.42-.083.829-.187l1.136-.29c.421-.111.839-.259,1.247-.4.525-.187,1.043-.4,1.551-.622a13.14,13.14,0,0,0,1.275-.67,11.607,11.607,0,0,0,1.119-.739c.352-.266.7-.535,1.053-.8.117-.09.242-.173.349-.269l.456-.4c.235-.207.47-.411.7-.625q.829-.8,1.644-1.61.658-.653,1.285-1.333l.794-.857c.263-.28.508-.58.76-.87.211-.238.408-.49.611-.739.18-.218.363-.439.535-.66q.72-.917,1.437-1.838c.85-1.095,1.713-2.183,2.546-3.3ZM67,34.207l.024-.031.024-.035.017-.021Zm-7.547,8.808c-.473.463-.946.922-1.43,1.378-.4.376-.822.732-1.237,1.095-.342.259-.687.518-1.029.774a11.757,11.757,0,0,1-1.161.76,13.118,13.118,0,0,1-1.637.812,18.98,18.98,0,0,1-2.442.788c-.428.107-.853.221-1.281.307s-.853.18-1.285.242l-1.292.183c-.632.052-1.264.107-1.893.162-.349.028-.7.028-1.05.041-.273.01-.546.031-.819.028l-1.23-.007c-.269,0-.539-.028-.8-.048-.332-.024-.67-.031-1-.073L38.648,49.3l.114.014-.553-.069h.017l-1.06-.176c-.287-.048-.577-.09-.864-.149-.694-.135-1.385-.266-2.073-.425-.356-.083-.715-.152-1.067-.245l-1.157-.307c-.266-.073-.532-.145-.794-.225-.328-.1-.663-.19-.991-.3-1.036-.349-2.076-.691-3.105-1.057q-.891-.321-1.782-.636c-.473-.169-.943-.359-1.413-.539-.553-.228-1.105-.456-1.651-.7q-1.067-.477-2.124-.974c-.57-.266-1.136-.532-1.7-.808-.29-.142-.584-.28-.874-.425-.314-.162-.636-.311-.943-.484-.39-.221-.781-.435-1.157-.674-.4-.252-.781-.508-1.167-.774-.639-.435-1.261-.9-1.883-1.357-.484-.377-.974-.75-1.43-1.161-.511-.459-1.016-.922-1.5-1.406-.515-.511-1.022-1.026-1.534-1.544-.228-.235-.453-.47-.674-.712s-.456-.487-.674-.739c-.169-.2-.346-.394-.508-.6l-.432-.542c-.408-.556-.8-1.119-1.171-1.7-.207-.325-.383-.67-.566-1.009-.155-.287-.28-.591-.414-.888-.135-.332-.263-.66-.377-1-.062-.18-.128-.356-.18-.539l-.228-.8c-.055-.2-.1-.411-.145-.618s-.086-.387-.124-.587c-.073-.39-.128-.784-.183-1.178-.028-.325-.055-.653-.086-.981-.024-.3-.031-.6-.045-.9A16.682,16.682,0,0,1,2.225,19.6c.048-.342.1-.684.176-1.019l.2-.881c.093-.421.225-.836.342-1.247s.256-.812.387-1.216c.107-.328.235-.649.359-.974l.3-.674c.083-.183.162-.37.256-.549.259-.48.5-.967.788-1.437l.473-.788c.142-.238.307-.463.463-.694.256-.383.532-.75.8-1.119.342-.428.684-.853,1.043-1.268Q8.446,7.006,9.1,6.3c.073-.079.156-.155.231-.228l.463-.456c.18-.176.366-.342.556-.508.214-.187.425-.387.649-.563l.642-.5a10.433,10.433,0,0,1,1.945-1.133,12.554,12.554,0,0,1,2.708-.66,15.165,15.165,0,0,1,1.682-.1,12.618,12.618,0,0,1,1.613.114c.5.076,1.009.142,1.509.245l1.1.221c.245.052.494.117.739.176s.484.107.722.173c.349.1.7.2,1.05.294.218.062.432.145.649.221l.822.29.895.383c.276.117.546.249.815.38s.553.263.822.408c.4.214.8.428,1.2.646.615.328,1.216.684,1.824,1.026.528.3,1.057.6,1.579.915.577.342,1.157.68,1.727,1.036.6.377,1.205.743,1.793,1.133.608.4,1.216.8,1.813,1.223.622.435,1.24.877,1.858,1.319q1.218.876,2.411,1.782c.294.238.584.477.877.718.245.2.48.414.719.625.48.425.953.857,1.43,1.281,1.033.926,2.079,1.841,3.154,2.725.6.494,1.2.981,1.813,1.461.287.225.577.442.867.656.269.2.532.4.8.584l.971.642c.3.2.611.376.915.563.276.169.573.314.86.473.152.083.314.152.47.228.211.1.418.2.632.283.325.131.642.276.971.39l1.04.363c.152.052.307.1.463.145s.311.1.47.145c.328.086.653.19.984.259.677.138,1.351.276,2.031.383.788.121,1.575.231,2.363.321.3.035.611.052.919.069.345.017.691.038,1.036.038s.7-.014,1.057-.028.677-.062,1.016-.1a20.534,20.534,0,0,0,3.934-.919q-.6,1.062-1.212,2.114c-.363.608-.718,1.223-1.1,1.824-.387.618-.781,1.23-1.178,1.841-.159.245-.342.477-.515.712-.183.256-.359.511-.549.763l.117-.152q-.586.762-1.164,1.53-1.316,1.658-2.635,3.319c-.394.5-.788,1-1.2,1.485-.249.294-.494.591-.743.884s-.511.573-.767.864c-.162.183-.335.356-.5.535-.183.193-.363.39-.549.58C60.3,42.162,59.881,42.594,59.452,43.015Z" transform="translate(9.96 -0.147) rotate(-2)" fill="#fff"/>
    <path id="Path_23" data-name="Path 23" d="M149.659,43c-.217.406-.423.811-.633,1.217-.285.548-.573,1.089-.85,1.637-.292.583-.587,1.167-.879,1.747-.078.157-.149.317-.221.477a.776.776,0,0,0-.694.562.756.756,0,0,0,.071.562.512.512,0,0,0,.064.089c-.121.263-.231.537-.345.8s-.246.562-.359.847c-.224.573-.455,1.142-.669,1.722-.242.658-.48,1.324-.733,1.982-.128.331-.253.665-.384,1-.064.16-.125.324-.192.484l-.117.3a1.4,1.4,0,0,0-.117.591.626.626,0,0,0,.178.423.615.615,0,0,0,.573.157.826.826,0,0,0,.423-.26.568.568,0,0,0,.132-.573c.377-.929.712-1.871,1.049-2.814l.5-1.388c.157-.434.331-.865.5-1.3l.331-.79c.1-.228.185-.455.285-.68l.011-.025q.945.3,1.882.619c.509.174,1.021.342,1.523.53,1.16.434,2.316.875,3.487,1.274l.039.011c-.188.445-.377.886-.562,1.331-.5,1.213-1.01,2.419-1.491,3.636-.135.345-.26.694-.388,1.039-.064.178-.125.356-.189.537a2.767,2.767,0,0,0-.142.836.744.744,0,0,0,1.114.648l.16-.121a.758.758,0,0,0,.2-.338l.028-.075-.021.05a4.161,4.161,0,0,0,.16-.463l.125-.466c.075-.267.156-.53.242-.793.185-.591.395-1.174.612-1.754q.624-1.692,1.3-3.366l.132-.327a1.162,1.162,0,0,0,.584-.036.708.708,0,0,0,.334-.192.741.741,0,0,0,.217-.523.732.732,0,0,0-.217-.519l-.157-.121a.634.634,0,0,0-.153-.064l.157-.377c.089-.206.185-.406.281-.608l.5-1.1c.082-.174.171-.345.26-.516l.541-1.053c.092-.178.192-.352.292-.53l.612-1.1a19.637,19.637,0,0,1,1.331-2.149,5.515,5.515,0,0,1,.53-.587.648.648,0,0,0,.285-.377.626.626,0,0,0-.061-.459.552.552,0,0,0-.1-.125.611.611,0,0,0-.747-.11,3.73,3.73,0,0,0-.829.843,13.311,13.311,0,0,0-.793,1.156c-.256.416-.5.84-.74,1.263-.3.534-.616,1.064-.9,1.6-.274.523-.562,1.035-.815,1.569l-.53,1.124c-.085.181-.178.366-.256.551l-.274.626c-.3-.093-.591-.185-.886-.281-.5-.16-1-.338-1.5-.519-.352-.128-.7-.26-1.053-.388-.242-.089-.48-.181-.722-.263q-1-.342-2.007-.676c-.253-.085-.505-.167-.761-.249.039-.089.082-.174.124-.26.285-.576.562-1.156.857-1.729.31-.6.623-1.2.932-1.807.946-1.832,1.932-3.647,2.914-5.461a.58.58,0,0,0-.092-.687.52.52,0,0,0-.121-.092.579.579,0,0,0-.779.217Q150.839,40.788,149.659,43Z" transform="translate(-119.334 -29.253)" fill="#fff"/>
    <path id="Path_24" data-name="Path 24" d="M149.123,43.455c.043.288.085.576.139.865l-.082.075a5.434,5.434,0,0,0-.936,1.1,5.358,5.358,0,0,0-.551,1.206,4.046,4.046,0,0,0-.206,1.348,4.622,4.622,0,0,0,.057.587,3.254,3.254,0,0,0,.1.455,4.119,4.119,0,0,0,.228.569,2.36,2.36,0,0,0,.26.427,4.031,4.031,0,0,0,.423.495,4.623,4.623,0,0,0,1.445.9c.3.125.608.238.918.342a3.807,3.807,0,0,0,.978.185.906.906,0,0,0,.872-.672.924.924,0,0,0-.089-.672.875.875,0,0,0-.555-.427,8.993,8.993,0,0,1-1.551-.416,4.234,4.234,0,0,1-.694-.381,3.027,3.027,0,0,1-.356-.352,3.212,3.212,0,0,1-.21-.374,3.275,3.275,0,0,1-.135-.519,3.5,3.5,0,0,1,0-.58,4.351,4.351,0,0,1,.213-.772,4.55,4.55,0,0,1,.395-.719,2.2,2.2,0,0,0,.2.331,1.858,1.858,0,0,0,.242.285,3.107,3.107,0,0,0,.306.228,2.7,2.7,0,0,0,.6.3,4.268,4.268,0,0,0,.64.185,4.875,4.875,0,0,0,1.284.125,3.7,3.7,0,0,0,.6-.06,2.363,2.363,0,0,0,.719-.281,1.778,1.778,0,0,0,.811-1.135,1.869,1.869,0,0,0,.039-.658,1.94,1.94,0,0,0-.071-.381,3.5,3.5,0,0,0-.185-.448,2.945,2.945,0,0,0-.4-.58.846.846,0,0,0-.107-.117,3.733,3.733,0,0,0-.409-.334,2.555,2.555,0,0,0-.58-.278,3.416,3.416,0,0,0-.584-.171,4.186,4.186,0,0,0-.7-.075,3.855,3.855,0,0,0-.7.057,3.086,3.086,0,0,0-.975.324l-.05-.334a.662.662,0,0,0-.327-.427.7.7,0,0,0-.519-.068.7.7,0,0,0-.427.327A.771.771,0,0,0,149.123,43.455Zm2.3,1.331a2.926,2.926,0,0,1,.463-.114,2.253,2.253,0,0,1,1.139.157,2.032,2.032,0,0,1,.245.132c.071.064.139.135.206.206a2.8,2.8,0,0,1,.181.317c.014.043.025.089.039.135s0,.082,0,.125l-.028.121-.039.064-.011.011a2.175,2.175,0,0,1-.2.11,1.685,1.685,0,0,1-.231.057,4.281,4.281,0,0,1-.854,0,4.356,4.356,0,0,1-.772-.185,2.63,2.63,0,0,1-.356-.192l-.075-.068a2.708,2.708,0,0,1-.171-.317c-.028-.082-.057-.167-.085-.249A3.978,3.978,0,0,1,151.421,44.786Z" transform="translate(-109.394 -18.266)" fill="#fff"/>
    <path id="Path_25" data-name="Path 25" d="M153.651,46.127c-.246.5-.47,1.007-.7,1.512-.221.47-.441.936-.644,1.409-.27.623-.551,1.238-.8,1.864l-.768,1.95c-.206.53-.395,1.064-.591,1.6-.2.551-.388,1.11-.573,1.665-.043.128-.082.256-.121.384a3.274,3.274,0,0,0-.078.591.72.72,0,0,0,.217.523.732.732,0,0,0,.523.217,1.15,1.15,0,0,0,.246-.025.814.814,0,0,0,.381-.2,2.282,2.282,0,0,0,.352-.484.668.668,0,0,0-.057-.747c.043-.139.089-.281.132-.42.064-.21.132-.413.2-.619.153-.473.317-.939.48-1.409.313-.893.655-1.775.993-2.661q.374-.881.74-1.761c.213-.509.455-1.007.687-1.509.206-.445.4-.9.623-1.341l1.06-2.145c.334-.68.676-1.348,1.025-2.021a.692.692,0,0,0-.11-.8.6.6,0,0,0-.142-.107.669.669,0,0,0-.911.249C155.071,43.26,154.363,44.694,153.651,46.127Z" transform="translate(-104.575 -21.03)" fill="#fff"/>
    <path id="Path_26" data-name="Path 26" d="M151.064,44.867l.043-.107-.029.064Z" transform="translate(-100.242 -12.704)" fill="#fff"/>
    <path id="Path_27" data-name="Path 27" d="M151.105,44.707l.011-.027h0Z" transform="translate(-100.136 -12.91)" fill="#fff"/>
    <path id="Path_28" data-name="Path 28" d="M155.189,44.741c-.409.754-.815,1.512-1.22,2.266-.185.342-.37.683-.541,1.032-.356.729-.708,1.455-1.06,2.184-.238.487-.438.989-.644,1.487l-.206.5-.057.135-.025.06a1.852,1.852,0,0,0-.078.2l-.342,1c-.174.523-.338,1.046-.477,1.58a16.092,16.092,0,0,0-.423,1.832,2,2,0,0,0,.036.993.844.844,0,0,0,.224.395.872.872,0,0,0,1.227,0l.142-.185a.909.909,0,0,0,.107-.327l.028-.153.036-.164c.025-.1.039-.2.06-.306.032-.174.064-.349.1-.523.082-.4.164-.8.27-1.192s.2-.779.32-1.16l.434-1.345-.011.028.007-.018.011-.028,0-.007.551-1.359-.018.05.06-.149.043-.11-.035.085.046-.11h0l.021-.053.014-.032-.014.032-.014.039-.007.014h0l-.018.046.018-.05c.285-.591.573-1.185.857-1.775.192-.4.374-.8.584-1.192.637-1.188,1.274-2.384,1.918-3.572.278-.516.58-1.018.868-1.526a.9.9,0,0,0-.15-1.067.875.875,0,0,0-.181-.139.9.9,0,0,0-1.21.331C156.021,43.236,155.594,43.983,155.189,44.741Zm-1.366,6.539,0,.011.011-.028Z" transform="translate(-102.783 -19.658)" fill="#fff"/>
    <path id="Path_29" data-name="Path 29" d="M152.057,48.876c-.06.192-.1.391-.153.587a3.474,3.474,0,0,0-.11.633,2.306,2.306,0,0,0,.032.384,1.608,1.608,0,0,0,.146.441l.046.064a1.6,1.6,0,0,0,.192.242,2.044,2.044,0,0,0,.313.242,2.26,2.26,0,0,0,.6.274,2.465,2.465,0,0,0,.662.1,4.436,4.436,0,0,0,.754-.068,5.283,5.283,0,0,0,2.469-1.21,4.746,4.746,0,0,0,.829-.84,4.288,4.288,0,0,0,.413-.6,2.913,2.913,0,0,0,.285-.712,1.908,1.908,0,0,0,.057-.68,2.9,2.9,0,0,0-.071-.434,3,3,0,0,0-.171-.416,2.445,2.445,0,0,0-.409-.58l-.085-.092a6.354,6.354,0,0,0-1.185-.833.891.891,0,0,0-.114-.146.79.79,0,0,0-.541-.224c-.075,0-.153,0-.228,0a.943.943,0,0,0-.345.021l-.078.025a2.263,2.263,0,0,0-.6.174,3.4,3.4,0,0,0-1.032.783,7.006,7.006,0,0,0-1.473,2.295C152.185,48.5,152.114,48.684,152.057,48.876Zm3.134-2.124.043-.028a6.321,6.321,0,0,1,.854.548,3.935,3.935,0,0,1,.47.441c.036.057.071.117.1.174l.018.064V48c-.014.068-.036.135-.057.2a3.1,3.1,0,0,1-.278.466,4.139,4.139,0,0,1-1.59,1.224,3.977,3.977,0,0,1-.7.181,2.327,2.327,0,0,1-.352.007,1.882,1.882,0,0,1-.192-.046l-.028-.018v-.039c.036-.2.075-.4.114-.6a4.806,4.806,0,0,1,.228-.729,6.2,6.2,0,0,1,.672-1.185A4.958,4.958,0,0,1,155.192,46.752Z" transform="translate(-98.378 -12.077)" fill="#fff"/>
  </g>
</svg>
