<svg xmlns="http://www.w3.org/2000/svg" width="4.51" height="4.509" viewBox="0 0 4.51 4.509">
  <g id="Group_40" data-name="Group 40" transform="translate(-105.707 -395.853)">
    <g id="Group_39" data-name="Group 39">
      <circle id="Ellipse_7" data-name="Ellipse 7" cx="0.271" cy="0.271" r="0.271" transform="translate(108.895 396.633)" fill="#f9b53b"/>
      <path id="Path_75" data-name="Path 75" d="M107.962,396.95a1.158,1.158,0,1,0,1.158,1.157A1.158,1.158,0,0,0,107.962,396.95Zm0,1.909a.752.752,0,1,1,.752-.752A.752.752,0,0,1,107.962,398.859Z" fill="#f9b53b"/>
      <path id="Path_76" data-name="Path 76" d="M110.2,397.178a1.685,1.685,0,0,0-.1-.548,1.159,1.159,0,0,0-.66-.659,1.645,1.645,0,0,0-.547-.105c-.241-.011-.318-.013-.93-.013s-.689,0-.93.013a1.645,1.645,0,0,0-.547.105,1.112,1.112,0,0,0-.4.26,1.087,1.087,0,0,0-.26.4,1.656,1.656,0,0,0-.1.548c-.011.24-.014.317-.014.929s0,.69.014.93a1.656,1.656,0,0,0,.1.548,1.087,1.087,0,0,0,.26.4,1.112,1.112,0,0,0,.4.26,1.644,1.644,0,0,0,.547.105c.241.011.318.013.93.013s.689,0,.93-.013a1.644,1.644,0,0,0,.547-.105,1.159,1.159,0,0,0,.66-.659,1.685,1.685,0,0,0,.1-.548c.011-.24.014-.317.014-.93S110.214,397.418,110.2,397.178Zm-.405,1.841a1.258,1.258,0,0,1-.078.418.744.744,0,0,1-.428.428,1.245,1.245,0,0,1-.419.078c-.237.011-.309.013-.911.013s-.673,0-.911-.013a1.245,1.245,0,0,1-.419-.078.744.744,0,0,1-.428-.428,1.239,1.239,0,0,1-.077-.418c-.011-.238-.014-.309-.014-.912s0-.673.014-.911a1.239,1.239,0,0,1,.077-.418.744.744,0,0,1,.428-.428,1.246,1.246,0,0,1,.419-.078c.238-.011.309-.013.911-.013s.673,0,.911.013a1.246,1.246,0,0,1,.419.078.744.744,0,0,1,.428.428,1.258,1.258,0,0,1,.078.418c.01.238.013.309.013.911S109.808,398.781,109.8,399.019Z" fill="#f9b53b"/>
    </g>
  </g>
</svg>
