<svg xmlns="http://www.w3.org/2000/svg" width="24.404" height="20.474" viewBox="0 0 24.404 20.474">
  <g id="Group_20" data-name="Group 20" transform="translate(-49.539 -98.985)">
    <g id="Group_17" data-name="Group 17">
      <path id="Path_54" data-name="Path 54" d="M52.03,105.331c3.394-1.051,6.762-2.194,10.135-3.309l5.062-1.673c.84-.278,1.677-.581,2.524-.834.425-.127.754-.113.99.286a2.932,2.932,0,0,1,.285.9q1.1,5.207,2.179,10.415l.143.682a2.424,2.424,0,0,1,.1.57c-.018.384-.671.476-.962.576q-1.233.429-2.471.848-2.477.84-4.962,1.648-5.621,1.832-11.3,3.486l.334.189a81.455,81.455,0,0,1-4-12.958c-.023.091-.048.181-.071.272A2.483,2.483,0,0,1,52.082,106a16.572,16.572,0,0,1,2.32.571,31.741,31.741,0,0,1,4.941,1.921c.385.188.764.384,1.142.588a6.572,6.572,0,0,0,1.166.566,1.719,1.719,0,0,0,1.856-.665c1.281-1.4,2.531-2.822,3.793-4.235q2.155-2.417,4.306-4.833c.222-.248-.143-.616-.365-.366q-3.8,4.265-7.593,8.536a7.631,7.631,0,0,1-.85.91,1.192,1.192,0,0,1-1.37.045c-.764-.365-1.492-.807-2.259-1.171a32.606,32.606,0,0,0-4.857-1.849c-1.437-.418-3.4-1.106-4.693.015a.284.284,0,0,0-.072.272,71.813,71.813,0,0,0,4.018,12.953.277.277,0,0,0,.333.19q5.315-1.559,10.585-3.265,2.605-.846,5.2-1.734,1.353-.465,2.705-.939c.557-.2,1.534-.34,1.559-1.1a4.78,4.78,0,0,0-.184-1.057q-.159-.743-.314-1.487l-.576-2.727q-.581-2.757-1.164-5.515a6,6,0,0,0-.62-2.167c-.459-.666-1.149-.5-1.814-.282l-5.3,1.753c-4.016,1.328-8.051,2.618-12.042,4.021-.235.083-.139.455.1.379Z" fill="#29274c"/>
    </g>
    <g id="Group_18" data-name="Group 18">
      <path id="Path_55" data-name="Path 55" d="M59.1,107.484c-2.046,3.521-4.081,7.034-6.332,10.432a.228.228,0,0,0,.309.309,2.659,2.659,0,0,0,.551-.45c.1-.105,0-.3-.148-.253a2.559,2.559,0,0,0-.631.312l.309.309a104.948,104.948,0,0,0,6.178-10.521c.078-.157-.148-.292-.236-.138Z" fill="#29274c"/>
    </g>
    <g id="Group_19" data-name="Group 19">
      <path id="Path_56" data-name="Path 56" d="M65.433,106.76a33,33,0,0,1,3.9,2.218q.93.63,1.794,1.348c.294.245.584.5.867.756a2.106,2.106,0,0,0,.808.6.132.132,0,0,0,.16-.162,1.912,1.912,0,0,0-.678-.806q-.409-.366-.833-.713-.894-.728-1.851-1.371a19.206,19.206,0,0,0-4.062-2.116c-.141-.052-.238.178-.1.245Z" fill="#29274c"/>
    </g>
  </g>
</svg>
