<svg xmlns="http://www.w3.org/2000/svg" width="101.467" height="101.467" viewBox="0 0 101.467 101.467">
  <g id="_2871128139008" data-name=" 2871128139008" transform="translate(-81.635 -382.339)" opacity="0.04">
    <g id="Group_5" data-name="Group 5" transform="translate(111.24 411.928)">
      <path id="Path_10" data-name="Path 10" d="M111.534,389.657a16.448,16.448,0,0,1-6.255,3.015,8.562,8.562,0,0,0-5.26,4.074h-.064a20.357,20.357,0,0,1-14.915-6.191q-.673-.673-1.251-1.347a12.036,12.036,0,0,1,13.744-1.62,22.316,22.316,0,0,0,14,2.069Z" transform="translate(-78.835 -354.472)" fill="#fff"/>
      <path id="Path_11" data-name="Path 11" d="M124.69,394.973a31.264,31.264,0,0,1-6.3.8s1.636,6.126-7.826,4.442c-7.89-1.4-14.578-7.7-24.168-.513a19.777,19.777,0,0,1-2.9-8.211,24.65,24.65,0,0,1,6.383-4.362c12.4-6.094,22.212,4.923,35.49,4.795A19.454,19.454,0,0,1,124.69,394.973Z" transform="translate(-83.331 -367.517)" fill="#fff"/>
      <path id="Path_12" data-name="Path 12" d="M125.739,404.792a60.21,60.21,0,0,1-9.061-1.042c-12.22-2.373-20.079-9.766-31.385-.818-.657.513-1.251,1.026-1.812,1.54A21.226,21.226,0,0,1,104.6,384.184a21.205,21.205,0,0,1,21.137,20.608Z" transform="translate(-83.481 -384.184)" fill="#fff"/>
    </g>
    <path id="Path_13" data-name="Path 13" d="M132.36,463.006A29.941,29.941,0,1,1,153.5,411.928a29.933,29.933,0,0,1-21.137,51.078Zm38.3-24.168a18.317,18.317,0,0,0,12.445-5.758,18.332,18.332,0,0,0-12.445-5.773,38.931,38.931,0,0,0-32.523-32.524,18.264,18.264,0,0,0-5.773-12.445,18.249,18.249,0,0,0-5.757,12.445,38.925,38.925,0,0,0-32.539,32.524,18.309,18.309,0,0,0-12.429,5.757,18.259,18.259,0,0,0,12.429,5.773A38.926,38.926,0,0,0,126.6,471.362a18.246,18.246,0,0,0,5.757,12.444,18.245,18.245,0,0,0,5.757-12.444,38.926,38.926,0,0,0,32.539-32.524Z" transform="translate(0 0)" fill="#fff"/>
  </g>
</svg>
