<svg xmlns="http://www.w3.org/2000/svg" width="4.348" height="4.348" viewBox="0 0 4.348 4.348">
  <g id="Group_46" data-name="Group 46" transform="translate(-67.941 -396.041)">
    <g id="Group_41" data-name="Group 41">
      <path id="Path_77" data-name="Path 77" d="M70.115,400.289a2.074,2.074,0,1,1,2.074-2.074A2.076,2.076,0,0,1,70.115,400.289Zm0-3.945a1.872,1.872,0,1,0,1.871,1.871A1.873,1.873,0,0,0,70.115,396.344Z" fill="none" stroke="#fab53b" stroke-miterlimit="10" stroke-width="0.2"/>
    </g>
    <g id="Group_42" data-name="Group 42">
      <path id="Path_78" data-name="Path 78" d="M70.1,397.774a4.8,4.8,0,0,1-1.8-.321l.082-.185a5.194,5.194,0,0,0,3.513,0l.067.191A5.664,5.664,0,0,1,70.1,397.774Z" fill="none" stroke="#fab53b" stroke-miterlimit="10" stroke-width="0.2"/>
    </g>
    <g id="Group_43" data-name="Group 43">
      <path id="Path_79" data-name="Path 79" d="M68.989,399.9l-.077-.187a3.025,3.025,0,0,1,2.421.008l-.109.171A2.878,2.878,0,0,0,68.989,399.9Z" fill="none" stroke="#fab53b" stroke-miterlimit="10" stroke-width="0.2"/>
    </g>
    <g id="Group_44" data-name="Group 44">
      <path id="Path_80" data-name="Path 80" d="M69.806,400.231a4.553,4.553,0,0,1-.288-3.979l.178.095a4.447,4.447,0,0,0,.292,3.8Z" fill="none" stroke="#fab53b" stroke-miterlimit="10" stroke-width="0.2"/>
    </g>
    <g id="Group_45" data-name="Group 45">
      <path id="Path_81" data-name="Path 81" d="M70.477,400.231l-.183-.087a4.447,4.447,0,0,0,.292-3.8l.179-.095A4.557,4.557,0,0,1,70.477,400.231Z" fill="none" stroke="#fab53b" stroke-miterlimit="10" stroke-width="0.2"/>
    </g>
  </g>
</svg>
