<svg id="Group_23" data-name="Group 23" xmlns="http://www.w3.org/2000/svg" width="96.911" height="83.165" viewBox="0 0 96.911 83.165">
  <g id="Group_22" data-name="Group 22">
    <g id="Group_18" data-name="Group 18" transform="translate(3.193 49.739)">
      <path id="Path_37" data-name="Path 37" d="M8.231,27H8.222l-.009-.028-.009-.009-.009.026c-.034.131-.017.054-.009-.026,0-.026-.009-.043-.009-.06V26.89l-.009-.017v-.017a.044.044,0,0,1,.017.034L8.2,26.9l.009-.026a.077.077,0,0,1,.009.043v.009C8.239,26.95,8.285,27.029,8.231,27Z" transform="translate(-8.171 -26.856)" fill="#272727"/>
      <path id="Path_38" data-name="Path 38" d="M8.368,27.088,8.3,27.054v-.009A.243.243,0,0,1,8.368,27.088Z" transform="translate(-7.924 -26.508)" fill="#272727"/>
      <path id="Path_39" data-name="Path 39" d="M15.9,29.369l-.028-.009-.051-.02c-.051-.009-.1-.026-.156-.034a.63.63,0,0,0-.1-.017l-.009-.009h-.071l-.423-.026c.094-.406.19-.79.259-1.014a3.273,3.273,0,0,0,.409.972.575.575,0,0,0,.1.094A.217.217,0,0,0,15.9,29.369Z" transform="translate(4.503 -24.306)" fill="#272727"/>
      <path id="Path_40" data-name="Path 40" d="M15.89,32.458a3.418,3.418,0,0,1-.338-.327c-.182-.122-.537-.063-.2-.105.1-.009.2-.009.3-.009h.009l.034-.009a1.42,1.42,0,0,0,.19-.043c-.009.2,0,.415,0,.415A.189.189,0,0,0,15.89,32.458Z" transform="translate(4.793 -17.446)" fill="#272727"/>
    </g>
    <path id="Path_41" data-name="Path 41" d="M19.689,32.586c-.668-.753-1.031-1.239-1.031-1.239" transform="translate(14.329 31.151)" fill="#272727"/>
    <path id="Path_42" data-name="Path 42" d="M36.83,20.4c-.261.608-.528,1.213-.807,1.813A16.074,16.074,0,0,1,36.83,20.4Z" transform="translate(46.299 10.995)" fill="#272727"/>
    <g id="Group_19" data-name="Group 19">
      <path id="Path_43" data-name="Path 43" d="M35.424,17.746a2.083,2.083,0,1,1,2.452-1.631A2.092,2.092,0,0,1,35.424,17.746Z" transform="translate(42.104 -1.486)" fill="#272727"/>
      <path id="Path_44" data-name="Path 44" d="M103.378,25a11.667,11.667,0,0,0-3.98-.139,7.435,7.435,0,0,0-.8-2.921,20.324,20.324,0,0,0-4.665-5.654,35.449,35.449,0,0,0-3.762-3.031l-.017-.009c-.321-.227-5.549-3.8-7-3.9-1.421-.1.651,1.96.815,2.134-.6.3-1.171.7-1.742,1.023q-4.6,2.642-9.225,5.287Q59.267,25.65,45.3,33.106c-3.208,1.716-6.5,3.338-9.623,5.236-1.872,1.145-3.762,2.5-4.679,4.56-1.909,4.264-.807,10.185,2.7,13.3a15.945,15.945,0,0,0,9.344,3.682c-.634.946-1.239,1.909-1.821,2.878-.3.511-.614,1.023-.884,1.563-.909,1.872,1.889,3.517,2.81,1.636a42.758,42.758,0,0,1,3.736-6.04,28.862,28.862,0,0,0,5.046-.79,43.22,43.22,0,0,0,15.717-7.949c3.682-2.844,7.722-6.605,5.98-11.807-.841-2.514-3.077-4.767-5.912-4.455a10.352,10.352,0,0,0-4.421,1.707c-4.924,3.182-8.756,8.165-12.37,12.674-1.943,2.418-3.867,4.872-5.679,7.4-4.975.034-10.143-1.475-11.5-6.407a11.368,11.368,0,0,1-.27-4.145,5.541,5.541,0,0,1,.886-2.625,10.393,10.393,0,0,1,3.085-2.446c1.906-1.153,3.9-2.176,5.87-3.225q18.384-9.819,36.434-20.171c.676-.381,1.352-.764,2.02-1.153l.017-.009.063-.034c.571-.3,4.125-2,7.333.043a30.053,30.053,0,0,1,4.7,4.3,12.1,12.1,0,0,1,2.063,3.051,3.125,3.125,0,0,1,.241,1.546v.009c-2.494.77-3.909,2.131-4.185,3.364l-.009-.028v.071a1.771,1.771,0,0,0-.02.77l.054.278a18.809,18.809,0,0,1-.832,8.418c-.321.807-.651,1.6-.989,2.392,0,.017-.009.026-.017.043-.261.608-.528,1.213-.807,1.813l-.017.034a38.381,38.381,0,0,1-12.924,16A58.918,58.918,0,0,1,46.242,69.168c-.963.08-1.923.131-2.887.165a6.535,6.535,0,0,0-2.565.27c-1.682.778-3.338,1.631-5.054,2.358A33.926,33.926,0,0,1,32.2,73.287a11.946,11.946,0,0,1-1.284.321c-.009.2,0,.415,0,.415a.189.189,0,0,0,.009.077l.009.011c.165.077.009.136-.009-.011a3.418,3.418,0,0,1-.338-.327c-.182-.122-.537-.063-.2-.105.1-.009.2-.009.3-.009h.009l.034-.009a1.42,1.42,0,0,0,.19-.043v-.193a13.951,13.951,0,0,1,.443-2.435c.5-2.037,1.145-4.04,1.648-6.077.321-1.284.693-2.645-.608-3.5a4.672,4.672,0,0,0-2.176-.588,47.072,47.072,0,0,0-6.424.077,74.252,74.252,0,0,1-7.992.037,15.958,15.958,0,0,1-3.259-.469c-.236-.063-.469-.131-.7-.207-.165-.054-.338-.131-.381-.139-.182-.088-.364-.182-.545-.287a2.041,2.041,0,0,1-.224-.148l-.009-.009-.063-.034-.009-.009a.15.15,0,0,0-.034-.043c-.077-.071-.139-.148-.207-.219a.617.617,0,0,1-.071-.128h-.009l-.009-.028-.009-.009-.009.026c-.034.131-.017.054-.009-.026,0-.026-.009-.043-.009-.06v-.017L10.24,59.1v-.017a.044.044,0,0,1,.017.034l.009.009.009-.026a.077.077,0,0,1,.009.043.658.658,0,0,1,.063-.182c.017,0,.2-.381.241-.452a2.784,2.784,0,0,1,.261-.372,11.376,11.376,0,0,1,1.179-1.273,40.331,40.331,0,0,1,6.31-4.725c1.188-.756,2.384-1.5,3.614-2.185,1.83-1.023.19-3.833-1.636-2.81A49.384,49.384,0,0,0,9.45,54.84C7.882,56.417,6.217,58.661,7.51,60.9c1.117,1.952,3.563,2.662,5.634,2.992,5.262.824,10.552.017,15.83.105.276.009.545.026.824.043.094-.406.19-.79.259-1.014-.026-.114.009-.2.088-.207a.686.686,0,0,0-.088.207,3.273,3.273,0,0,0,.409.972.575.575,0,0,0,.1.094l.071.045.009.017.017.009v.009l-.017-.017h-.009l-.028-.009-.051-.02c-.051-.009-.1-.026-.156-.034a.63.63,0,0,0-.1-.017l-.009-.009h-.071l-.423-.026c-.19.824-.392,1.776-.443,1.949a54.646,54.646,0,0,0-1.526,6.06c-.216,1.361-.415,3.122.668,4.2,1.855,1.838,5.887-.224,7.784-1.014,1.614-.668,3.216-1.378,4.784-2.142,2.21,2.463,7.725,7.8,14.773,8.679C74.865,84.131,94.528,76.293,97.187,55.9c1.588-12.242-.182-19.723-1.855-23.754C97.457,31.018,106.281,25.865,103.378,25ZM50.1,55.593a139.261,139.261,0,0,1,9.049-10.966A29.128,29.128,0,0,1,65.5,39.078c.182-.1.364-.207.545-.3.051-.028.372-.173.46-.219a7.066,7.066,0,0,1,1.171-.364c.06-.009.139-.026.2-.034a.294.294,0,0,1,.077-.009h.017a1.915,1.915,0,0,1,.625.026A2.573,2.573,0,0,1,69.95,39.2c1.744,2.384.435,5.219-1.438,7a40.218,40.218,0,0,1-16.845,9.631c-.651.173-1.352.33-2.1.46C49.745,56.062,49.927,55.826,50.1,55.593Z" transform="translate(-7.047 -9.349)" fill="#272727"/>
      <path id="Path_45" data-name="Path 45" d="M34.507,10.552" transform="translate(43.508 -7.133)" fill="#272727"/>
    </g>
    <g id="Group_20" data-name="Group 20" transform="translate(49.603 77.109)">
      <path id="Path_46" data-name="Path 46" d="M27.781,40.92a4.981,4.981,0,0,1,.023-1.182l-.057.432a3.511,3.511,0,0,1,.105-.514c.023-.082.057-.162.082-.244-.2.625-.139.3-.037.131.02-.034.043-.065.063-.1.085-.151-.338.389-.162.21l.088-.091c.176-.185-.185.151-.222.165a.6.6,0,0,0,.105-.068c.148-.094.31-.034-.247.1.091-.023.173-.054.267-.068l-.432.06a1.731,1.731,0,0,1,.384,0l-.432-.057a2.3,2.3,0,0,1,.332.068c.105.031.509.193.179.054s-.043-.014.034.023.145.074.216.114c.162.088.318.185.469.287.168.111.33.227.489.347.21.153-.264-.21-.114-.088l.128.1c.1.08.2.162.293.244.457.386.892.8,1.318,1.224a1.625,1.625,0,0,0,2.3-2.3,14.722,14.722,0,0,0-3.338-2.679,3.906,3.906,0,0,0-2.906-.489c-1.568.469-2.122,2.085-2.193,3.563a5.124,5.124,0,0,0,.014.753,1.77,1.77,0,0,0,.477,1.151,1.627,1.627,0,0,0,2.776-1.151Z" transform="translate(-24.506 -36.49)" fill="#272727"/>
    </g>
    <g id="Group_21" data-name="Group 21" transform="translate(62.095 77.109)">
      <path id="Path_47" data-name="Path 47" d="M32.175,40.92a5.135,5.135,0,0,1,.026-1.182l-.06.432a3.935,3.935,0,0,1,.108-.514c.023-.082.057-.162.082-.244-.2.625-.142.3-.037.131.02-.034.043-.065.063-.1.085-.151-.338.389-.162.21l.088-.091c.176-.185-.185.151-.224.165a.625.625,0,0,0,.108-.068c.148-.094.31-.034-.247.1.091-.023.173-.054.267-.068l-.432.06a1.706,1.706,0,0,1,.381,0L31.7,39.7a2.157,2.157,0,0,1,.332.068c.108.031.511.193.182.054s-.043-.014.034.023.145.074.216.114c.159.088.315.185.469.287s.33.227.489.347c.21.153-.267-.21-.114-.088l.125.1c.1.08.2.162.3.244.457.386.892.8,1.315,1.224a1.625,1.625,0,1,0,2.3-2.3,14.706,14.706,0,0,0-3.335-2.679A3.908,3.908,0,0,0,31.1,36.6c-1.568.469-2.122,2.085-2.193,3.563a5.126,5.126,0,0,0,.014.753A1.756,1.756,0,0,0,29.4,42.07a1.625,1.625,0,0,0,2.773-1.151Z" transform="translate(-28.903 -36.49)" fill="#272727"/>
    </g>
  </g>
</svg>
