<svg xmlns="http://www.w3.org/2000/svg" width="71.418" height="466.476" viewBox="0 0 71.418 466.476">
  <g id="Group_12" data-name="Group 12" transform="translate(1.5 1.5)">
    <g id="Group_11" data-name="Group 11">
      <path id="Path_18" data-name="Path 18" d="M12.132,243.466a83.851,83.851,0,0,1-1.392-15.81c0-8.654,1.492-14.222,4.872-18.4,2.585-3.48,6.563-5.571,11.836-5.571,6.461,0,12.131,4.279,14.717,11.339h.2c1.591-6.364,6.861-13.825,16.808-13.825A18.076,18.076,0,0,1,72.6,206.868c4.276,4.676,6.264,12.234,6.264,23.174a101.134,101.134,0,0,1-.8,13.424Zm27.447-8.654V226.96c0-9.151-4.773-14.521-11.239-14.521-7.855,0-10.938,5.966-10.938,14.717a37.085,37.085,0,0,0,.6,7.657Zm32.121,0a46.164,46.164,0,0,0,.4-7.256c0-8.952-3.281-17.205-13.029-17.205-9.148,0-12.927,7.858-12.927,17.3v7.157Z" transform="translate(-10.541 220.01)" fill="none" stroke="#272727" stroke-miterlimit="10" stroke-width="3"/>
      <path id="Path_19" data-name="Path 19" d="M12.132,222.773a90.109,90.109,0,0,1-1.392-16.606c0-9.25,1.69-15.217,5.469-19.393a16.692,16.692,0,0,1,12.728-5.27c8.853,0,14.719,5.568,17.106,12.628h.3c1.79-5.171,6.563-8.253,13.526-9.844,9.347-2.188,15.81-3.781,18.4-5.174v8.952c-1.889,1.094-7.657,2.585-16.012,4.475C53,194.53,49.523,198.113,49.225,205.966v8.157H78.263v8.651Zm30.53-8.651V205.27c0-9.248-5.071-15.114-12.728-15.114-8.654,0-12.432,6.264-12.532,15.415a35.61,35.61,0,0,0,.8,8.552Z" transform="translate(-10.541 179.351)" fill="none" stroke="#272727" stroke-miterlimit="10" stroke-width="3"/>
      <path id="Path_20" data-name="Path 20" d="M46.516,162.744V188.8H70.682V159.761h7.259V197.45H10.915v-36.2h7.259V188.8H39.357V162.744Z" transform="translate(-10.219 143.719)" fill="none" stroke="#272727" stroke-miterlimit="10" stroke-width="3"/>
      <path id="Path_21" data-name="Path 21" d="M56.857,175.4l21.083,6.961v8.952L10.915,168.54V158.1l67.026-22.87v9.245l-21.083,7.162ZM50.1,153.423,30.8,159.986c-4.375,1.494-8.353,2.486-12.231,3.483v.2c3.977,1,8.054,2.091,12.131,3.384L50.1,173.611Z" transform="translate(-10.219 98.549)" fill="none" stroke="#272727" stroke-miterlimit="10" stroke-width="3"/>
      <path id="Path_22" data-name="Path 22" d="M10.915,159.813V151.16h32.32v-.3c-2.585-1.79-4.972-3.577-7.159-5.27L10.915,125.1V114.365l28.442,24.265,38.584-26.155v10.242L45.025,144.8l7.358,6.364H77.941v8.654Z" transform="translate(-10.219 56.665)" fill="none" stroke="#272727" stroke-miterlimit="10" stroke-width="3"/>
      <path id="Path_23" data-name="Path 23" d="M10.915,104.5H77.941v8.654H10.915Z" transform="translate(-10.219 41.976)" fill="none" stroke="#272727" stroke-miterlimit="10" stroke-width="3"/>
      <path id="Path_24" data-name="Path 24" d="M77.941,129.162H10.915v-9.446L44.826,98.231A189.5,189.5,0,0,1,66.605,86.2l-.1-.2c-8.952.8-17.106.994-27.547.994H10.915V78.841H77.941v8.75l-34.01,21.282A212.752,212.752,0,0,1,21.555,121.4l.1.3c8.452-.5,16.509-.7,27.646-.7H77.941Z" transform="translate(-10.219 -5.258)" fill="none" stroke="#272727" stroke-miterlimit="10" stroke-width="3"/>
      <path id="Path_25" data-name="Path 25" d="M75.409,52.941A62.478,62.478,0,0,1,79.088,73.53c0,10.143-2.585,18.5-8.85,25.058-5.568,5.767-14.521,9.35-24.961,9.35-19.99-.1-34.607-13.825-34.607-36.3,0-7.756,1.69-13.825,3.083-16.705l7.06,2.088a34.74,34.74,0,0,0-2.884,14.816c0,16.31,10.143,26.95,26.95,26.95,17.006,0,27.05-10.242,27.05-25.853,0-5.671-.8-9.549-1.79-11.537H50.149V75.019H43.189V52.941Z" transform="translate(-10.67 -52.941)" fill="none" stroke="#272727" stroke-miterlimit="10" stroke-width="3"/>
    </g>
  </g>
</svg>
