<svg id="Group_40" data-name="Group 40" xmlns="http://www.w3.org/2000/svg" xmlns:xlink="http://www.w3.org/1999/xlink" width="107.618" height="159.796" viewBox="0 0 107.618 159.796">
  <defs>
    <clipPath id="clip-path">
      <rect id="Rectangle_17" data-name="Rectangle 17" width="107.618" height="159.796" fill="none"/>
    </clipPath>
  </defs>
  <g id="Group_39" data-name="Group 39" clip-path="url(#clip-path)">
    <g id="Group_38" data-name="Group 38" transform="translate(-17.941 12.473)">
      <g id="Group_34" data-name="Group 34">
        <path id="Path_56" data-name="Path 56" d="M8.964,603.339a23.632,23.632,0,0,1,.116-5.523l-.273,2.017a16.862,16.862,0,0,1,.5-2.4c.111-.384.264-.75.386-1.128-.938,2.9-.656,1.417-.176.6.091-.153.2-.3.29-.455.4-.71-1.58,1.813-.75.974.136-.139.273-.284.406-.423.818-.858-.864.71-1.04.776a3.212,3.212,0,0,0,.5-.321c.688-.437,1.443-.168-1.156.457a12.411,12.411,0,0,1,1.253-.31L7,597.87a7.626,7.626,0,0,1,1.781.017l-2.017-.273a11.521,11.521,0,0,1,1.551.327c.5.142,2.381.895.847.25-1.514-.636-.2-.071.153.105.341.168.679.347,1.011.531.75.418,1.477.867,2.19,1.341.778.517,1.531,1.065,2.284,1.622.974.719-1.244-.989-.534-.412.2.156.395.312.591.472q.695.558,1.372,1.139c2.131,1.813,4.165,3.742,6.148,5.716,2.815,2.8,7.955,3.023,10.731,0a7.723,7.723,0,0,0,0-10.733c-4.648-4.628-9.733-9.407-15.577-12.5C13.41,583.3,8.6,581.8,3.961,583.191c-7.321,2.19-9.907,9.731-10.239,16.629a23.115,23.115,0,0,0,.065,3.52,8.215,8.215,0,0,0,2.222,5.367,7.709,7.709,0,0,0,5.367,2.222c3.756-.168,8.032-3.361,7.588-7.588Z" transform="translate(6.315 -582.654)" fill="#272727"/>
      </g>
      <g id="Group_35" data-name="Group 35" transform="translate(2.631 69.995)">
        <path id="Path_57" data-name="Path 57" d="M9.89,627.976a23.633,23.633,0,0,1,.116-5.523l-.273,2.017a16.937,16.937,0,0,1,.5-2.4c.111-.384.264-.75.386-1.128-.935,2.906-.656,1.418-.176.6.094-.153.2-.3.293-.455.4-.71-1.582,1.813-.753.974.136-.139.273-.284.406-.423.821-.855-.864.71-1.04.776a3.212,3.212,0,0,0,.5-.321c.688-.437,1.443-.168-1.156.457a12.411,12.411,0,0,1,1.253-.31l-2.017.273a7.626,7.626,0,0,1,1.781.014l-2.017-.27a11.185,11.185,0,0,1,1.554.324c.494.142,2.378.895.844.25-1.514-.636-.2-.071.153.1s.679.347,1.011.534c.75.415,1.477.864,2.193,1.338.778.517,1.531,1.065,2.281,1.622.974.719-1.244-.989-.531-.412.2.156.392.313.588.471q.695.558,1.372,1.139c2.134,1.816,4.165,3.742,6.148,5.716,2.815,2.807,7.955,3.026,10.731,0a7.724,7.724,0,0,0,0-10.734c-4.645-4.628-9.733-9.407-15.577-12.5-4.12-2.176-8.927-3.671-13.569-2.284-7.321,2.19-9.907,9.731-10.239,16.629a23.116,23.116,0,0,0,.065,3.52,8.215,8.215,0,0,0,2.222,5.367A7.718,7.718,0,0,0,2.3,635.564c3.759-.167,8.032-3.358,7.588-7.588Z" transform="translate(5.389 -607.291)" fill="#272727"/>
      </g>
      <g id="Group_36" data-name="Group 36" transform="translate(66.737 95.019)">
        <path id="Path_58" data-name="Path 58" d="M32.456,636.784a23.479,23.479,0,0,1,.114-5.523l-.27,2.017a16.858,16.858,0,0,1,.494-2.4c.111-.384.264-.75.386-1.128-.935,2.906-.656,1.418-.173.6.091-.153.2-.3.29-.455.4-.71-1.58,1.813-.753.975.139-.139.273-.284.406-.423.821-.855-.864.71-1.04.776a3.213,3.213,0,0,0,.5-.321c.688-.437,1.443-.168-1.156.457a12.57,12.57,0,0,1,1.253-.31l-2.017.273a7.645,7.645,0,0,1,1.784.014l-2.017-.27a11.128,11.128,0,0,1,1.551.324c.494.142,2.378.895.844.25-1.511-.636-.2-.071.153.105s.679.347,1.014.534c.747.415,1.477.864,2.19,1.338.778.517,1.531,1.065,2.281,1.622.974.719-1.244-.989-.531-.412.2.156.395.313.591.472q.69.558,1.372,1.139c2.131,1.815,4.162,3.742,6.145,5.716,2.815,2.807,7.958,3.026,10.733,0a7.726,7.726,0,0,0,0-10.733c-4.648-4.628-9.736-9.407-15.58-12.5-4.12-2.176-8.927-3.671-13.566-2.284-7.321,2.19-9.91,9.73-10.242,16.629a23.485,23.485,0,0,0,.065,3.52,8.2,8.2,0,0,0,2.225,5.367,7.707,7.707,0,0,0,5.364,2.222c3.759-.168,8.032-3.358,7.591-7.589Z" transform="translate(-17.175 -616.099)" fill="#272727"/>
      </g>
      <g id="Group_37" data-name="Group 37" transform="translate(49.889 42.485)">
        <path id="Path_59" data-name="Path 59" d="M26.524,618.293a23.632,23.632,0,0,1,.116-5.523l-.273,2.017a16.937,16.937,0,0,1,.5-2.4c.111-.384.264-.75.386-1.128-.938,2.906-.656,1.418-.176.6.091-.153.2-.3.29-.454.4-.71-1.58,1.813-.75.975.136-.139.273-.281.406-.423.818-.855-.864.71-1.04.776a3.231,3.231,0,0,0,.5-.321c.688-.437,1.443-.168-1.156.458a12.379,12.379,0,0,1,1.253-.31l-2.017.273a7.62,7.62,0,0,1,1.781.014l-2.017-.27a10.682,10.682,0,0,1,1.551.327c.5.139,2.381.892.847.247-1.514-.636-.2-.071.153.1.341.171.679.349,1.011.534.75.415,1.477.866,2.19,1.338.781.517,1.531,1.068,2.284,1.622.974.719-1.244-.989-.534-.412.2.159.395.313.591.472.463.375.92.753,1.372,1.139,2.131,1.816,4.165,3.742,6.148,5.716,2.815,2.807,7.955,3.026,10.731,0a7.72,7.72,0,0,0,0-10.731c-4.648-4.631-9.733-9.409-15.577-12.5-4.12-2.179-8.929-3.673-13.569-2.287-7.321,2.19-9.907,9.734-10.239,16.629a23.114,23.114,0,0,0,.065,3.52,8.216,8.216,0,0,0,2.222,5.367,7.723,7.723,0,0,0,5.367,2.224c3.756-.17,8.032-3.361,7.588-7.591Z" transform="translate(-11.245 -597.608)" fill="#272727"/>
      </g>
    </g>
  </g>
</svg>
