<svg id="Group_29" data-name="Group 29" xmlns="http://www.w3.org/2000/svg" width="19.701" height="13.395" viewBox="0 0 19.701 13.395">
  <path id="Path_53" data-name="Path 53" d="M206.187,213.119a11.2,11.2,0,0,1,.054-2.617l-.128.955a8.136,8.136,0,0,1,.233-1.136c.054-.182.128-.355.185-.534-.443,1.375-.313.671-.082.284.043-.074.1-.142.136-.216.19-.338-.747.858-.355.46.065-.065.128-.133.193-.2.386-.406-.409.335-.494.367a1.574,1.574,0,0,0,.236-.151c.327-.21.685-.082-.548.216a6.057,6.057,0,0,1,.594-.148l-.955.128a3.646,3.646,0,0,1,.844.009l-.955-.128a5.456,5.456,0,0,1,.736.153c.233.068,1.125.423.4.117s-.094-.031.074.051.321.165.48.253c.355.2.7.409,1.037.634.369.244.724.506,1.082.77.46.341-.591-.469-.253-.2.094.074.187.148.278.224.219.176.438.355.651.54,1.011.858,1.972,1.77,2.912,2.708a3.595,3.595,0,1,0,5.083-5.086,32.409,32.409,0,0,0-7.378-5.918,8.6,8.6,0,0,0-6.426-1.082c-3.469,1.037-4.693,4.608-4.853,7.875a11.282,11.282,0,0,0,.031,1.668,3.889,3.889,0,0,0,1.054,2.543,3.641,3.641,0,0,0,2.543,1.051c1.778-.08,3.8-1.591,3.594-3.594Z" transform="translate(-198.948 -203.32)" fill="#272727"/>
</svg>
