<svg id="Group_24" data-name="Group 24" xmlns="http://www.w3.org/2000/svg" width="19.703" height="13.396" viewBox="0 0 19.703 13.396">
  <path id="Path_48" data-name="Path 48" d="M187.821,215.477a11.2,11.2,0,0,1,.054-2.617l-.128.955a7.8,7.8,0,0,1,.236-1.139c.051-.182.125-.355.182-.534-.443,1.378-.31.67-.082.284.043-.074.1-.142.136-.216.19-.335-.747.858-.355.463.065-.065.128-.134.193-.2.389-.406-.409.338-.494.366a1.228,1.228,0,0,0,.236-.151c.327-.207.685-.08-.545.216a5.951,5.951,0,0,1,.591-.145l-.955.128a3.806,3.806,0,0,1,.844.006l-.955-.128a4.975,4.975,0,0,1,.736.156c.233.065,1.125.423.4.116s-.094-.034.074.051.321.165.48.253c.355.2.7.409,1.037.634.369.244.727.506,1.082.767.46.341-.591-.466-.253-.193.094.074.188.148.278.222.222.179.438.358.651.54,1.011.861,1.975,1.773,2.912,2.708a3.595,3.595,0,0,0,5.085-5.083,32.5,32.5,0,0,0-7.381-5.921,8.622,8.622,0,0,0-6.426-1.082c-3.469,1.037-4.693,4.611-4.85,7.878a10.907,10.907,0,0,0,.028,1.668,3.882,3.882,0,0,0,1.054,2.54,3.644,3.644,0,0,0,2.543,1.054c1.779-.08,3.8-1.591,3.594-3.594Z" transform="translate(-180.583 -205.678)" fill="#272727"/>
</svg>
