<svg id="Group_27" data-name="Group 27" xmlns="http://www.w3.org/2000/svg" width="19.701" height="13.396" viewBox="0 0 19.701 13.396">
  <path id="Path_51" data-name="Path 51" d="M192.541,222.2a11.218,11.218,0,0,1,.054-2.619l-.128.957a7.79,7.79,0,0,1,.233-1.139c.054-.182.125-.355.185-.534-.443,1.375-.312.67-.082.284.043-.074.094-.142.136-.216.19-.335-.75.858-.355.463.065-.065.128-.134.19-.2.389-.406-.409.335-.492.366a1.579,1.579,0,0,0,.236-.151c.327-.207.682-.08-.548.216a6.027,6.027,0,0,1,.594-.145l-.955.128a3.643,3.643,0,0,1,.844.006l-.955-.128a5.028,5.028,0,0,1,.733.156c.236.065,1.128.423.4.116s-.1-.034.074.051.321.165.477.25c.355.2.7.412,1.04.636.369.244.724.506,1.082.767.46.341-.591-.466-.253-.193.091.074.185.148.278.222.219.176.435.358.651.54,1.009.861,1.972,1.773,2.912,2.708a3.594,3.594,0,0,0,5.083-5.083,32.481,32.481,0,0,0-7.378-5.921,8.624,8.624,0,0,0-6.426-1.082c-3.469,1.037-4.7,4.611-4.853,7.878a11.279,11.279,0,0,0,.031,1.668,3.882,3.882,0,0,0,1.054,2.54,3.642,3.642,0,0,0,2.54,1.054c1.781-.08,3.8-1.591,3.6-3.594Z" transform="translate(-185.302 -212.398)" fill="#272727"/>
</svg>
