<svg id="Group_26" data-name="Group 26" xmlns="http://www.w3.org/2000/svg" width="19.701" height="13.397" viewBox="0 0 19.701 13.397">
  <path id="Path_50" data-name="Path 50" d="M198.9,217.833a11.194,11.194,0,0,1,.054-2.617l-.128.957a7.715,7.715,0,0,1,.233-1.139c.054-.182.125-.355.185-.534-.443,1.375-.312.67-.082.284.043-.074.094-.142.136-.216.19-.335-.75.858-.355.46.065-.065.128-.133.19-.2.389-.406-.409.335-.492.367a1.587,1.587,0,0,0,.236-.151c.327-.207.685-.08-.548.216a6.039,6.039,0,0,1,.594-.148l-.955.131a3.5,3.5,0,0,1,.844.006l-.955-.128a5.426,5.426,0,0,1,.733.153c.236.068,1.128.423.4.119s-.1-.034.074.048.321.165.48.253c.352.2.7.412,1.037.634.369.247.724.506,1.082.77.46.341-.591-.469-.253-.2.091.077.185.148.278.224.219.176.435.358.651.54,1.009.858,1.972,1.773,2.912,2.708a3.594,3.594,0,0,0,5.083-5.083,32.481,32.481,0,0,0-7.378-5.921,8.611,8.611,0,0,0-6.426-1.082c-3.469,1.037-4.7,4.608-4.853,7.875a11.265,11.265,0,0,0,.031,1.668,3.889,3.889,0,0,0,1.054,2.543,3.655,3.655,0,0,0,2.54,1.054c1.781-.08,3.8-1.594,3.6-3.6Z" transform="translate(-191.664 -208.035)" fill="#272727"/>
</svg>
