<svg id="Group_5" data-name="Group 5" xmlns="http://www.w3.org/2000/svg" width="321.535" height="37.502" viewBox="0 0 321.535 37.502">
  <path id="Path_1" data-name="Path 1" d="M49.131,19.627H67.18v4.031H60.339V45.517h-4.4V23.658H49.131Z" transform="translate(-49.131 -16.669)" fill="#272727"/>
  <path id="Path_2" data-name="Path 2" d="M60.479,47.434H56.487V18.586h3.992Zm6.2-13.205a2.9,2.9,0,0,0-2.423-.96,3.945,3.945,0,0,0-1.96.48,3.452,3.452,0,0,0-1.332,1.332,4.02,4.02,0,0,0-.48,2h-.96a8.529,8.529,0,0,1,.739-3.625A6.353,6.353,0,0,1,62.348,30.9a5.483,5.483,0,0,1,3.273-.96,6.418,6.418,0,0,1,3.2.739,4.659,4.659,0,0,1,1.977,2.2,8.755,8.755,0,0,1,.668,3.642V47.434H67.434V37.078A4.54,4.54,0,0,0,66.675,34.229Z" transform="translate(-35.588 -18.586)" fill="#272727"/>
  <path id="Path_3" data-name="Path 3" d="M67.211,39.262a7.646,7.646,0,0,1-3.051-3.105A9.692,9.692,0,0,1,63.086,31.5a9.627,9.627,0,0,1,1.094-4.7,7.607,7.607,0,0,1,3.088-3.088,9.67,9.67,0,0,1,4.7-1.088,9.413,9.413,0,0,1,4.585,1.034,7.057,7.057,0,0,1,2.9,2.977,9.992,9.992,0,0,1,1.017,4.679c0,.2-.006.406-.02.628a2.975,2.975,0,0,1-.054.48H65.455V29.685H76.993l-1.219,1.7a4.755,4.755,0,0,0,.239-.611,2.167,2.167,0,0,0,.131-.648,4.925,4.925,0,0,0-.537-2.367,3.913,3.913,0,0,0-1.477-1.554,4.275,4.275,0,0,0-2.2-.554,4.81,4.81,0,0,0-2.588.665,4.182,4.182,0,0,0-1.628,1.923,8.079,8.079,0,0,0-.594,3.105,7.834,7.834,0,0,0,.557,3.125,4.118,4.118,0,0,0,1.645,1.943,4.988,4.988,0,0,0,2.645.665,5.853,5.853,0,0,0,2.847-.665,5.373,5.373,0,0,0,2.034-2.034l3.44,1.406a8.847,8.847,0,0,1-3.44,3.438,10.466,10.466,0,0,1-5.066,1.148A9.159,9.159,0,0,1,67.211,39.262Z" transform="translate(-23.439 -11.156)" fill="#272727"/>
  <path id="Path_4" data-name="Path 4" d="M78.858,19.627v25.89h-4.29V19.627Zm-1.591,0H90.324v3.847H77.267Zm0,10.134H89.583v3.773H77.267Zm0,11.91H90.324v3.847H77.267Z" transform="translate(-2.3 -16.669)" fill="#272727"/>
  <path id="Path_5" data-name="Path 5" d="M92.055,26.8a2.913,2.913,0,0,0-2.4-.96,4.015,4.015,0,0,0-1.96.463,3.3,3.3,0,0,0-1.332,1.33,4.1,4.1,0,0,0-.48,2.017V40H81.884V22.988h3.995v2.628a5.563,5.563,0,0,1,2.088-2.256,5.982,5.982,0,0,1,3.054-.739,5.5,5.5,0,0,1,4.4,1.756A7.135,7.135,0,0,1,96.936,29.2V40H92.831V29.648A4.467,4.467,0,0,0,92.055,26.8Z" transform="translate(11.169 -11.156)" fill="#272727"/>
  <path id="Path_6" data-name="Path 6" d="M89.671,26.634a7.864,7.864,0,0,1,3.048-2.977,8.437,8.437,0,0,1,4.088-1.034,6.7,6.7,0,0,1,3.753,1.051,7.281,7.281,0,0,1,2.554,3.014,10.871,10.871,0,0,1,.943,4.736,10.758,10.758,0,0,1-.943,4.7,7.263,7.263,0,0,1-2.554,3.014,6.7,6.7,0,0,1-3.753,1.054,8.409,8.409,0,0,1-4.088-1.037,7.83,7.83,0,0,1-3.048-2.994,9.22,9.22,0,0,1-1.148-4.733A9.27,9.27,0,0,1,89.671,26.634Zm3.142,14.515a3.928,3.928,0,0,0,.648,2.071,4.1,4.1,0,0,0,1.682,1.443,5.653,5.653,0,0,0,2.477.517,5.177,5.177,0,0,0,2.406-.591,4.626,4.626,0,0,0,1.867-1.813,6.121,6.121,0,0,0,.722-3.145V22.988h3.921V39.631A9.487,9.487,0,0,1,105.3,44.7a7.827,7.827,0,0,1-3.236,2.977,9.7,9.7,0,0,1-4.327.98A10.862,10.862,0,0,1,93,47.714a7.033,7.033,0,0,1-3.012-2.645,7.8,7.8,0,0,1-1.131-3.921Zm.554-6.841A4.644,4.644,0,0,0,95.236,36.1a5.344,5.344,0,0,0,2.534.611,4.851,4.851,0,0,0,2.273-.591,4.7,4.7,0,0,0,1.85-1.793,5.559,5.559,0,0,0,.722-2.9,5.764,5.764,0,0,0-.426-2.313,5.175,5.175,0,0,0-1.128-1.665,4.655,4.655,0,0,0-1.571-1.017,4.792,4.792,0,0,0-1.719-.332,5.377,5.377,0,0,0-2.534.611A4.663,4.663,0,0,0,93.367,28.5a5.64,5.64,0,0,0-.7,2.923A5.547,5.547,0,0,0,93.367,34.307Z" transform="translate(23.391 -11.156)" fill="#272727"/>
  <path id="Path_7" data-name="Path 7" d="M100.6,18.586V47.434H96.607V18.586Z" transform="translate(38.274 -18.586)" fill="#272727"/>
  <path id="Path_8" data-name="Path 8" d="M100.516,20.212a2.516,2.516,0,0,1,1.756-.7,2.485,2.485,0,0,1,1.8.7,2.435,2.435,0,0,1,0,3.46,2.444,2.444,0,0,1-1.8.722,2.475,2.475,0,0,1-1.756-.722,2.352,2.352,0,0,1,0-3.46Zm3.716,8.506V45.733h-3.918V28.718Z" transform="translate(44.074 -16.885)" fill="#272727"/>
  <path id="Path_9" data-name="Path 9" d="M106.7,35.952a6.366,6.366,0,0,0,1.685.963,4.848,4.848,0,0,0,1.7.313,2.653,2.653,0,0,0,1.685-.48,1.6,1.6,0,0,0,.608-1.332,1.858,1.858,0,0,0-.477-1.276,4.061,4.061,0,0,0-1.332-.923q-.852-.388-2-.8a19.929,19.929,0,0,1-2.276-1.054,5.422,5.422,0,0,1-1.85-1.608,4.2,4.2,0,0,1-.719-2.514,4.126,4.126,0,0,1,.793-2.591,4.714,4.714,0,0,1,2.145-1.534,8.768,8.768,0,0,1,5.549-.091,9.143,9.143,0,0,1,2.236,1.071,7.732,7.732,0,0,1,1.7,1.517l-2.222,2.367a6.922,6.922,0,0,0-2.031-1.628,5.17,5.17,0,0,0-2.443-.628,2.468,2.468,0,0,0-1.4.369,1.209,1.209,0,0,0-.557,1.074,1.412,1.412,0,0,0,.5,1.054,4.858,4.858,0,0,0,1.332.832q.831.366,1.867.776a21.033,21.033,0,0,1,2.588,1.219,6.078,6.078,0,0,1,1.906,1.628,4.091,4.091,0,0,1,.719,2.514,4.918,4.918,0,0,1-1.645,3.867,6.482,6.482,0,0,1-4.458,1.46,9.219,9.219,0,0,1-3.2-.537,9.127,9.127,0,0,1-2.548-1.4,10.539,10.539,0,0,1-1.832-1.832l2.33-2.33A13.375,13.375,0,0,0,106.7,35.952Z" transform="translate(49.538 -11.156)" fill="#272727"/>
  <path id="Path_10" data-name="Path 10" d="M112.785,47.434h-3.995V18.586h3.995Zm6.193-13.205a2.9,2.9,0,0,0-2.421-.96,3.945,3.945,0,0,0-1.96.48,3.452,3.452,0,0,0-1.332,1.332,3.989,3.989,0,0,0-.48,2h-.96a8.486,8.486,0,0,1,.739-3.625,6.347,6.347,0,0,1,2.088-2.551,5.492,5.492,0,0,1,3.276-.96,6.418,6.418,0,0,1,3.2.739,4.673,4.673,0,0,1,1.977,2.2,8.8,8.8,0,0,1,.665,3.642V47.434h-4.031V37.078A4.522,4.522,0,0,0,118.979,34.229Z" transform="translate(60.706 -18.586)" fill="#272727"/>
  <path id="Path_11" data-name="Path 11" d="M125.284,37.668a8.694,8.694,0,0,0,3.253,3.2,8.831,8.831,0,0,0,4.384,1.128,10.645,10.645,0,0,0,3.33-.483,10.232,10.232,0,0,0,2.682-1.31,11.138,11.138,0,0,0,2.088-1.869v5.179a12.268,12.268,0,0,1-3.514,2.031,13.673,13.673,0,0,1-4.733.7,14.484,14.484,0,0,1-5.307-.96,12.294,12.294,0,0,1-4.27-2.776,12.97,12.97,0,0,1-2.833-4.27,14.781,14.781,0,0,1,0-10.762,12.953,12.953,0,0,1,2.833-4.273,12.247,12.247,0,0,1,4.27-2.773,14.427,14.427,0,0,1,5.307-.963,13.747,13.747,0,0,1,4.733.7,12.286,12.286,0,0,1,3.514,2.037v5.176a11.028,11.028,0,0,0-2.088-1.867A10.246,10.246,0,0,0,136.25,24.2a10.816,10.816,0,0,0-3.33-.48,8.861,8.861,0,0,0-4.384,1.128,8.732,8.732,0,0,0-3.253,3.182,9.149,9.149,0,0,0-1.239,4.827A9.176,9.176,0,0,0,125.284,37.668Z" transform="translate(80.143 -16.957)" fill="#272727"/>
  <path id="Path_12" data-name="Path 12" d="M129.5,26.875a8.444,8.444,0,0,1,3.273-3.125,9.648,9.648,0,0,1,4.7-1.128,9.55,9.55,0,0,1,4.679,1.128,9.044,9.044,0,0,1,3.273,12.35,8.631,8.631,0,0,1-3.273,3.145,9.55,9.55,0,0,1-4.679,1.128,9.648,9.648,0,0,1-4.7-1.128A8.433,8.433,0,0,1,129.5,36.1a8.808,8.808,0,0,1-1.2-4.6A8.78,8.78,0,0,1,129.5,26.875Zm3.568,7.415a4.892,4.892,0,0,0,4.4,2.568,5,5,0,0,0,2.571-.682,4.907,4.907,0,0,0,1.83-1.886,5.68,5.68,0,0,0,.668-2.793,5.789,5.789,0,0,0-.668-2.813,4.755,4.755,0,0,0-1.83-1.886,5.337,5.337,0,0,0-5.159,0,4.79,4.79,0,0,0-1.813,1.886A5.788,5.788,0,0,0,132.4,31.5,5.679,5.679,0,0,0,133.064,34.29Z" transform="translate(96.606 -11.156)" fill="#272727"/>
  <path id="Path_13" data-name="Path 13" d="M140.957,35.919a2.813,2.813,0,0,0,2.367,1,4.131,4.131,0,0,0,2-.46,3.305,3.305,0,0,0,1.332-1.332,4.089,4.089,0,0,0,.48-2.017V22.751h3.994V39.766h-3.994V37.138a5.739,5.739,0,0,1-2.088,2.239,5.873,5.873,0,0,1-3.051.759,5.475,5.475,0,0,1-4.384-1.776,7.1,7.1,0,0,1-1.534-4.807v-10.8h4.105V33.107A4.494,4.494,0,0,0,140.957,35.919Z" transform="translate(110.938 -10.918)" fill="#272727"/>
  <path id="Path_14" data-name="Path 14" d="M147.126,40h-3.955V22.988h3.955Zm4.031-13.427a2.912,2.912,0,0,0-1.219-.222,2.47,2.47,0,0,0-1.628.52A2.856,2.856,0,0,0,147.4,28.3a7.3,7.3,0,0,0-.278,2.125l-1.33-.776a8.152,8.152,0,0,1,.759-3.605,6.758,6.758,0,0,1,1.96-2.5,4.032,4.032,0,0,1,2.5-.923,5.356,5.356,0,0,1,1.736.276,2.924,2.924,0,0,1,1.369.98l-1.923,3.367A5.16,5.16,0,0,0,151.157,26.577Z" transform="translate(124.001 -11.156)" fill="#272727"/>
  <path id="Path_15" data-name="Path 15" d="M148.694,20.212a2.516,2.516,0,0,1,1.756-.7,2.484,2.484,0,0,1,1.8.7,2.442,2.442,0,0,1,0,3.46,2.444,2.444,0,0,1-1.8.722,2.475,2.475,0,0,1-1.756-.722,2.352,2.352,0,0,1,0-3.46Zm3.716,8.506V45.733h-3.921V28.718Z" transform="translate(132.771 -16.885)" fill="#272727"/>
  <path id="Path_16" data-name="Path 16" d="M155.116,39.262a7.645,7.645,0,0,1-3.051-3.105,9.724,9.724,0,0,1-1.071-4.659,9.626,9.626,0,0,1,1.091-4.7,7.624,7.624,0,0,1,3.088-3.088,9.67,9.67,0,0,1,4.7-1.088,9.413,9.413,0,0,1,4.585,1.034,7.025,7.025,0,0,1,2.9,2.977,9.958,9.958,0,0,1,1.017,4.679c0,.2-.006.406-.02.628a2.675,2.675,0,0,1-.054.48H153.361V29.685H164.9l-1.222,1.7a4.748,4.748,0,0,0,.239-.611,2.08,2.08,0,0,0,.131-.648,4.925,4.925,0,0,0-.537-2.367,3.913,3.913,0,0,0-1.477-1.554,4.275,4.275,0,0,0-2.2-.554,4.81,4.81,0,0,0-2.588.665,4.182,4.182,0,0,0-1.628,1.923,8.082,8.082,0,0,0-.591,3.105,7.836,7.836,0,0,0,.554,3.125,4.118,4.118,0,0,0,1.645,1.943,4.988,4.988,0,0,0,2.645.665,5.872,5.872,0,0,0,2.85-.665,5.366,5.366,0,0,0,2.031-2.034l3.44,1.406a8.847,8.847,0,0,1-3.44,3.438,10.458,10.458,0,0,1-5.066,1.148A9.166,9.166,0,0,1,155.116,39.262Z" transform="translate(138.403 -11.156)" fill="#272727"/>
  <path id="Path_17" data-name="Path 17" d="M162.411,40h-3.958V22.988h3.958Zm4.031-13.427a2.926,2.926,0,0,0-1.222-.222,2.475,2.475,0,0,0-1.628.52,2.876,2.876,0,0,0-.906,1.423,7.307,7.307,0,0,0-.276,2.125l-1.332-.776a8.191,8.191,0,0,1,.759-3.605,6.817,6.817,0,0,1,1.96-2.5,4.044,4.044,0,0,1,2.5-.923,5.373,5.373,0,0,1,1.739.276,2.917,2.917,0,0,1,1.367.98l-1.923,3.367A5.229,5.229,0,0,0,166.442,26.577Z" transform="translate(152.135 -11.156)" fill="#272727"/>
</svg>
