<svg id="Group_25" data-name="Group 25" xmlns="http://www.w3.org/2000/svg" width="19.703" height="13.397" viewBox="0 0 19.703 13.397">
  <path id="Path_49" data-name="Path 49" d="M196.007,210.139a11.2,11.2,0,0,1,.054-2.617l-.128.957a7.722,7.722,0,0,1,.236-1.139c.051-.182.125-.355.182-.534-.443,1.375-.31.67-.082.284.043-.074.1-.142.136-.216.19-.335-.747.858-.355.46.065-.065.128-.134.193-.2.389-.406-.409.335-.494.366a1.576,1.576,0,0,0,.236-.151c.327-.207.685-.08-.545.216a5.983,5.983,0,0,1,.591-.148l-.955.131a3.491,3.491,0,0,1,.844.006l-.955-.128a5.456,5.456,0,0,1,.736.153c.233.068,1.125.423.4.119s-.094-.034.074.048.321.165.48.253c.355.2.7.412,1.037.634.369.247.727.506,1.082.77.46.341-.591-.469-.253-.2.094.077.188.148.278.224.222.176.438.358.651.54,1.011.858,1.972,1.773,2.912,2.708a3.595,3.595,0,1,0,5.086-5.083,32.5,32.5,0,0,0-7.381-5.921,8.609,8.609,0,0,0-6.426-1.082c-3.469,1.037-4.693,4.608-4.85,7.875a10.887,10.887,0,0,0,.028,1.668,3.883,3.883,0,0,0,1.054,2.543,3.656,3.656,0,0,0,2.543,1.054c1.779-.08,3.8-1.594,3.594-3.6Z" transform="translate(-188.769 -200.341)" fill="#272727"/>
</svg>
