<svg id="Group_31" data-name="Group 31" xmlns="http://www.w3.org/2000/svg" width="19.701" height="13.395" viewBox="0 0 19.701 13.395">
  <path id="Path_55" data-name="Path 55" d="M203.537,205.425a11.194,11.194,0,0,1,.054-2.617l-.128.955a7.758,7.758,0,0,1,.233-1.136c.054-.182.125-.355.185-.534-.443,1.375-.312.67-.085.284.045-.074.1-.142.139-.216.19-.338-.75.858-.355.46l.19-.2c.389-.406-.409.335-.492.366a1.744,1.744,0,0,0,.236-.151c.324-.21.682-.082-.548.216a6.057,6.057,0,0,1,.594-.148l-.955.128a3.643,3.643,0,0,1,.844.009l-.957-.128a5.358,5.358,0,0,1,.736.153c.236.068,1.128.423.4.119s-.1-.034.074.048.321.165.477.253c.355.2.7.409,1.04.634.369.244.724.506,1.08.77.463.341-.588-.469-.25-.2.091.074.185.148.278.224.219.176.435.355.651.54,1.009.858,1.972,1.77,2.912,2.708a3.595,3.595,0,0,0,5.083-5.086,32.472,32.472,0,0,0-7.378-5.918,8.6,8.6,0,0,0-6.429-1.082c-3.466,1.037-4.693,4.608-4.85,7.875a11.265,11.265,0,0,0,.031,1.668,3.9,3.9,0,0,0,1.051,2.543,3.652,3.652,0,0,0,2.543,1.051c1.781-.08,3.8-1.591,3.6-3.594Z" transform="translate(-196.298 -195.626)" fill="#272727"/>
</svg>
