<svg id="Group_44" data-name="Group 44" xmlns="http://www.w3.org/2000/svg" width="386.486" height="23.64" viewBox="0 0 386.486 23.64">
  <text id="ofcenglish" transform="translate(40.972 16)" fill="#272727" font-size="11" font-family="SegoeUI, Segoe UI" letter-spacing="0.025em"><tspan x="-26.06" y="0">ofcenglish</tspan></text>
  <path id="Path_30" data-name="Path 30" d="M31.109,788.235H28.633c-.874,0-1.055.357-1.055,1.261v2.187h3.532l-.338,3.838H27.577v11.459H23V795.566H20.619v-3.884H23v-3.061c0-2.869,1.535-4.371,4.939-4.371h3.169Z" transform="translate(-20.619 -784.251)" fill="#272727"/>
  <text id="www.offcourse.app_courier" data-name="www.offcourse.app/courier" transform="translate(197.177 16)" fill="#272727" font-size="11" font-family="SegoeUI, Segoe UI" letter-spacing="0.025em"><tspan x="-68.588" y="0">www.offcourse.app/courier</tspan></text>
  <g id="Group_17" data-name="Group 17" transform="translate(105.361 1)">
    <ellipse id="Ellipse_5" data-name="Ellipse 5" cx="10.667" cy="10.667" rx="10.667" ry="10.667" fill="none" stroke="#272727" stroke-miterlimit="10" stroke-width="2"/>
    <path id="Path_33" data-name="Path 33" d="M135.172,786.823a28.365,28.365,0,0,0,19.4,0" transform="translate(-134.114 -780.779)" fill="none" stroke="#272727" stroke-miterlimit="10" stroke-width="2"/>
    <path id="Path_34" data-name="Path 34" d="M136.338,792.388s7.654-3.151,12.589,0" transform="translate(-131.967 -773.111)" fill="none" stroke="#272727" stroke-miterlimit="10" stroke-width="2"/>
    <path id="Path_35" data-name="Path 35" d="M138.619,784.8s-4.472,8.341,1.568,21.027" transform="translate(-130.7 -784.496)" fill="none" stroke="#272727" stroke-miterlimit="10" stroke-width="2"/>
    <path id="Path_36" data-name="Path 36" d="M140.637,784.8s4.472,8.341-1.568,21.027" transform="translate(-126.939 -784.496)" fill="none" stroke="#272727" stroke-miterlimit="10" stroke-width="2"/>
  </g>
  <text id="ofcenglish-2" data-name="ofcenglish" transform="translate(359.486 16)" fill="#272727" font-size="11" font-family="SegoeUI, Segoe UI" letter-spacing="0.025em"><tspan x="-26.06" y="0">ofcenglish</tspan></text>
  <g id="Group_16" data-name="Group 16" transform="translate(306.361 1)">
    <ellipse id="Ellipse_4" data-name="Ellipse 4" cx="1.359" cy="1.359" rx="1.359" ry="1.359" transform="translate(16.007 3.918)" fill="#272727"/>
    <path id="Path_31" data-name="Path 31" d="M84.967,786.9a5.814,5.814,0,1,0,5.816,5.813A5.813,5.813,0,0,0,84.967,786.9Zm0,9.589a3.774,3.774,0,1,1,3.776-3.776A3.775,3.775,0,0,1,84.967,796.486Z" transform="translate(-73.645 -781.392)" fill="#272727"/>
    <path id="Path_32" data-name="Path 32" d="M99.79,791.611a8.329,8.329,0,0,0-.526-2.747,5.782,5.782,0,0,0-3.313-3.31,8.238,8.238,0,0,0-2.747-.526c-1.207-.057-1.594-.068-4.668-.068s-3.46.011-4.668.068a8.238,8.238,0,0,0-2.747.526,5.767,5.767,0,0,0-3.31,3.31,8.32,8.32,0,0,0-.528,2.747c-.054,1.208-.068,1.594-.068,4.668s.014,3.461.068,4.668a8.337,8.337,0,0,0,.528,2.75,5.789,5.789,0,0,0,3.31,3.31,8.238,8.238,0,0,0,2.747.526c1.207.057,1.594.068,4.668.068s3.46-.011,4.668-.068a8.238,8.238,0,0,0,2.747-.526,5.8,5.8,0,0,0,3.313-3.31,8.346,8.346,0,0,0,.526-2.75c.057-1.208.068-1.591.068-4.668S99.847,792.818,99.79,791.611Zm-2.037,9.245a6.352,6.352,0,0,1-.389,2.1,3.745,3.745,0,0,1-2.151,2.148,6.326,6.326,0,0,1-2.1.389c-1.193.054-1.551.065-4.574.065s-3.381-.011-4.574-.065a6.343,6.343,0,0,1-2.1-.389,3.751,3.751,0,0,1-2.148-2.148,6.2,6.2,0,0,1-.389-2.1c-.057-1.2-.068-1.554-.068-4.577s.011-3.381.068-4.574a6.2,6.2,0,0,1,.389-2.1,3.467,3.467,0,0,1,.847-1.3,3.5,3.5,0,0,1,1.3-.847,6.189,6.189,0,0,1,2.1-.389c1.193-.054,1.551-.065,4.574-.065s3.381.011,4.574.065a6.173,6.173,0,0,1,2.1.389,3.743,3.743,0,0,1,2.151,2.148,6.349,6.349,0,0,1,.389,2.1c.054,1.193.065,1.551.065,4.574S97.807,799.659,97.753,800.855Z" transform="translate(-77.215 -784.96)" fill="#272727"/>
  </g>
</svg>
