<svg id="Group_28" data-name="Group 28" xmlns="http://www.w3.org/2000/svg" width="19.702" height="13.396" viewBox="0 0 19.702 13.396">
  <path id="Path_52" data-name="Path 52" d="M207,223.194a11.2,11.2,0,0,1,.054-2.617l-.128.957a7.789,7.789,0,0,1,.236-1.139c.051-.182.125-.355.182-.534-.443,1.375-.31.671-.082.284.043-.074.1-.142.136-.216.19-.335-.747.858-.355.463.065-.068.128-.136.193-.2.386-.406-.409.335-.494.367a1.58,1.58,0,0,0,.236-.151c.327-.207.685-.08-.548.216a6.021,6.021,0,0,1,.594-.145l-.955.128a3.643,3.643,0,0,1,.844.006l-.955-.128a5.064,5.064,0,0,1,.736.156c.233.065,1.125.423.4.117s-.094-.034.074.048.321.165.48.253c.355.2.7.412,1.037.636.369.244.727.5,1.082.767.46.341-.591-.469-.253-.2.094.077.188.151.278.224.219.176.438.358.651.54,1.011.861,1.972,1.773,2.912,2.708a3.594,3.594,0,0,0,5.083-5.083,32.42,32.42,0,0,0-7.378-5.921,8.624,8.624,0,0,0-6.426-1.082c-3.469,1.037-4.693,4.608-4.853,7.875a11.257,11.257,0,0,0,.031,1.668,3.883,3.883,0,0,0,1.054,2.543,3.644,3.644,0,0,0,2.543,1.054c1.779-.08,3.8-1.594,3.594-3.6Z" transform="translate(-199.765 -213.397)" fill="#272727"/>
</svg>
