<svg id="Group_30" data-name="Group 30" xmlns="http://www.w3.org/2000/svg" width="19.701" height="13.396" viewBox="0 0 19.701 13.396">
  <path id="Path_54" data-name="Path 54" d="M192.016,202.445a11.2,11.2,0,0,1,.054-2.617l-.131.957a8.12,8.12,0,0,1,.236-1.139c.054-.182.125-.355.185-.534-.443,1.375-.312.67-.085.284.045-.074.1-.142.139-.216.19-.335-.75.858-.355.46l.19-.2c.389-.406-.409.335-.492.367a1.742,1.742,0,0,0,.236-.151c.324-.207.682-.08-.548.216a6.061,6.061,0,0,1,.594-.148l-.955.131a3.647,3.647,0,0,1,.844.006l-.957-.128a5.376,5.376,0,0,1,.736.153c.236.068,1.128.423.4.119s-.1-.034.074.048.321.165.477.253c.355.2.7.412,1.04.636.369.244.724.5,1.08.767.463.341-.588-.469-.25-.2.091.077.185.151.278.224.219.176.435.358.651.54,1.009.858,1.972,1.773,2.912,2.708a3.594,3.594,0,0,0,5.083-5.083,32.482,32.482,0,0,0-7.378-5.921,8.629,8.629,0,0,0-6.429-1.082c-3.466,1.037-4.693,4.608-4.85,7.875a11.265,11.265,0,0,0,.031,1.668,3.894,3.894,0,0,0,1.051,2.543,3.654,3.654,0,0,0,2.543,1.054c1.781-.08,3.8-1.594,3.6-3.6Z" transform="translate(-184.777 -192.648)" fill="#272727"/>
</svg>
