<svg xmlns="http://www.w3.org/2000/svg" width="72.117" height="261.933" viewBox="0 0 72.117 261.933">
  <g id="Group_14" data-name="Group 14" transform="translate(1.5 1.5)">
    <g id="Group_13" data-name="Group 13">
      <path id="Path_26" data-name="Path 26" d="M244.438,144.647H177.412V135.2l33.911-21.484A189.5,189.5,0,0,1,233.1,101.684l-.1-.2c-8.949.793-17.1.992-27.547.992H177.412V94.326h67.026v8.75l-34.01,21.282a213.593,213.593,0,0,1-22.376,12.532l.1.3c8.452-.5,16.506-.7,27.646-.7h28.641Z" transform="translate(-176.315 114.286)" fill="none" stroke="#272727" stroke-miterlimit="10" stroke-width="3"/>
      <path id="Path_27" data-name="Path 27" d="M213.013,76.1v26.055h24.166V73.117h7.259v37.692H177.412v-36.2h7.259v27.544h21.18V76.1Z" transform="translate(-176.315 75.239)" fill="none" stroke="#272727" stroke-miterlimit="10" stroke-width="3"/>
      <path id="Path_28" data-name="Path 28" d="M244.438,104.39l-67.026,17v-9.145l33.911-7.958c8.353-1.989,16.705-3.779,23.169-4.972v-.2c-6.662-1.094-14.617-3.185-23.271-5.469L177.412,84.7V75.65l34.01-8.154c7.955-1.889,15.91-3.679,22.973-4.676v-.2c-7.361-1.392-14.819-3.281-23.174-5.372L177.412,48.4v-8.85l67.026,18.992V67.6l-34.905,8.452a201.975,201.975,0,0,1-21.879,4.375v.2a210.311,210.311,0,0,1,21.879,5.171l34.905,9.546Z" transform="translate(-176.315 13.445)" fill="none" stroke="#272727" stroke-miterlimit="10" stroke-width="3"/>
      <path id="Path_29" data-name="Path 29" d="M234.605,59.286a30.631,30.631,0,0,0,4.375-15.515c0-8.85-4.674-14.021-11.435-14.021-6.265,0-9.844,3.58-13.325,12.631-3.881,10.938-9.549,17.7-19,17.7-10.441,0-18.2-8.651-18.2-21.677,0-6.861,1.591-11.836,3.284-14.819l7.06,2.386A26.659,26.659,0,0,0,184.188,38.7c0,9.151,5.469,12.631,10.043,12.631,6.265,0,9.347-4.077,12.927-13.327,4.378-11.336,9.847-17.106,19.691-17.106,10.344,0,19.294,7.659,19.294,23.47,0,6.466-1.889,13.526-4.276,17.109Z" transform="translate(-177.026 -20.898)" fill="none" stroke="#272727" stroke-miterlimit="10" stroke-width="3"/>
    </g>
  </g>
</svg>
